<?xml version="1.0" encoding="utf-8" ?>
<svg baseProfile="full" height="200mm" version="1.1" viewBox="0,0,200,200" width="200mm" xmlns="http://www.w3.org/2000/svg" xmlns:ev="http://www.w3.org/2001/xml-events" xmlns:xlink="http://www.w3.org/1999/xlink"><defs /><rect fill="#1a1a1a" height="200" width="200" x="0" y="0" /><text alignment-baseline="middle" fill="#e1ed5e" style="dominant-baseline: central; font-size:9.0px; font-family:Arial;" text-anchor="middle" x="100.0" y="100.0">2023</text><line stroke="#e1ed5e" stroke-width="0.3" x1="100.0" x2="100.0" y1="15.0" y2="10.0" /><path d="M 100.0 14.0 a86.0,86.0 0 0,1 42.46469731375804,11.215312516191453" fill="none" id="id73" stroke="none" /><text fill="#e1ed5e" style="font-size:6.75px; font-family:Arial;" text-anchor="middle"><textPath startOffset="22.20632615414155" xlink:href="#id73">January</textPath></text><path d="M 104.66035177308747 79.52364482259891 l 2.9905053736216916 -13.139491002336172 a34.47550912545175,34.47550912545175 0 0,0 0.5775079757257758,0.13667747931993546 l -3.2162370363099906 13.086067610875368" fill="#ff870c" stroke="none" /><path d="M 106.0581310904928 79.89281104454417 l 7.7972220465331095 -25.879304141062118 a48.0284119856964,48.0284119856964 0 0,0 0.7895290639494408,0.2453105233996442 l -8.241536483193268 25.741253482779953" fill="#c5ff1e" stroke="none" /><path d="M 107.08798089147638 80.2323363322302 l 10.157975671957281 -28.329569408138482 a51.09566368436841,51.09566368436841 0 0,0 0.8253596284818133,0.30398691666628747 l -10.64411762621167 28.150519223665867" fill="#a0ff22" stroke="none" /><path d="M 108.76106565485865 80.91482961587045 l 11.265693289372587 -24.541269794477948 a48.00351400124751,48.00351400124751 0 0,0 0.7479902721615715,0.3511914622344059 l -11.686461772833756 24.34371334960354" fill="#c5ff1e" stroke="none" /><line stroke="#e1ed5e" stroke-width="0.3" x1="143.23703022742887" x2="145.7803849466894" y1="26.81831364943548" y2="22.513508569990506" /><path d="M 143.74570117128098 25.957352633546492 a86.0,86.0 0 0,1 28.547481713284135,27.462654790039103" fill="none" id="id74" stroke="none" /><text fill="#e1ed5e" style="font-size:6.75px; font-family:Arial;" text-anchor="middle"><textPath startOffset="19.985693538727396" xlink:href="#id74">February</textPath></text><path d="M 114.16331599549186 84.49514656593476 l 20.24138196503572 -22.15862872583684 a51.011970459534226,51.011970459534226 0 0,0 0.6432175052273728,0.597800570732728 l -20.61980735405794 21.806923569029475" fill="#a1ff22" stroke="none" /><path d="M 116.60985879189232 87.15038557335679 l 7.1454573778783965 -5.52782376768719 a30.034068670631424,30.034068670631424 0 0,0 0.3128177824394413,0.41163153360201005 l -7.239551100541951 5.404007458204147" fill="#ff4706" stroke="none" /><path d="M 117.2510076193507 88.02491185347247 l 24.64723020642315 -17.10930519551775 a51.003571139479185,51.003571139479185 0 0,0 0.49443234512010686,0.7255184567168415 l -24.938087017211988 16.6825087155305" fill="#a2ff22" stroke="none" /><line stroke="#e1ed5e" stroke-width="0.3" x1="172.23445277983987" x2="176.4835382374775" y1="55.19839476539836" y2="52.563006222186495" /><path d="M 173.08426987136738 54.67131705675599 a86.0,86.0 0 0,1 12.851231095245387,41.99856678651699" fill="none" id="id75" stroke="none" /><text fill="#e1ed5e" style="font-size:6.75px; font-family:Arial;" text-anchor="middle"><textPath startOffset="22.20632615414155" xlink:href="#id75">March</textPath></text><path d="M 118.21658344932153 89.55222093294921 l 13.106031064273774 -7.516717796527143 a36.10857692472514,36.10857692472514 0 0,0 0.30458849933425897,0.5418289534175658 l -13.233477204900465 7.290005333174783" fill="#ff9e0e" stroke="none" /><path d="M 118.73160827565052 90.50648371742162 l 37.46500036958962 -18.987936636377928 a63.00199983810834,63.00199983810834 0 0,0 0.481935258947767,0.9715520739505762 l -37.78629564149079 18.3402249739284" fill="#31ff43" stroke="none" /><path d="M 119.34039704204932 91.81776055985345 l 22.15815688383654 -9.374334186712797 a45.05955232195489,45.05955232195489 0 0,0 0.29605909614506964,0.7169305845121448 l -22.316237666867806 8.99152903174735" fill="#eaff1a" stroke="none" /><path d="M 119.97218684219823 93.5106431181261 l 37.08306646779941 -12.049018692102061 a59.991443549807876,59.991443549807876 0 0,0 0.3106543098509917,0.9848590561731017 l -37.28497626141861 11.408909469502541" fill="#3eff2d" stroke="none" /><path d="M 120.08093135843002 93.85539295169968 l 28.68988595124375 -8.778879439620138 a51.00297118804667,51.00297118804667 0 0,0 0.24965736513871206,0.8417205239233525 l -28.836749213494166 8.283729528950255" fill="#a2ff22" stroke="none" /><path d="M 120.45610955862082 95.25157060432595 l 20.575427205331863 -4.776126325016444 a42.12249008413605,42.12249008413605 0 0,0 0.1578703049082153,0.7077016216475417 l -20.654591897242113 4.421246533818938" fill="#ffef16" stroke="none" /><path d="M 120.6074358757038 95.95851677861258 l 41.23243571538075 -8.086411047243205 a63.01789855106968,63.01789855106968 0 0,0 0.1995995191831584,1.0662686127350123 l -41.36552095847377 7.3754643570456295" fill="#31ff44" stroke="none" /><path d="M 120.73433829027371 96.67025291283417 l 4.311800904162111 -0.6924362041400479 a25.36704647718994,25.36704647718994 0 0,0 0.06552441772566303,0.4317240441399519 l -4.323081215327074 0.6181130476080139" fill="#ff0000" stroke="none" /><path d="M 120.83666639777658 97.38593545837742 l 56.551194982954094 -7.094631682882787 a77.99448616064414,77.99448616064414 0 0,0 0.15565339917424123,1.3335432681959474 l -56.664938735131926 6.120144676361987" fill="#45fff0" stroke="none" /><path d="M 120.98425023603335 99.18683210126433 l 53.98390888130953 -2.091949021612996 a75.0244265940376,75.0244265940376 0 0,0 0.03889947047837665,1.290884047654647 l -54.01192004624355 1.16239482653335" fill="#41ffd0" stroke="none" /><line stroke="#e1ed5e" stroke-width="0.3" x1="184.98032266829074" x2="189.97916517819016" y1="98.17113171792111" y2="98.06355123074" /><path d="M 185.9800911702706 98.14961562048488 a86.0,86.0 0 0,1 -9.607161424134198,41.387399972396054" fill="none" id="id76" stroke="none" /><text fill="#e1ed5e" style="font-size:6.75px; font-family:Arial;" text-anchor="middle"><textPath startOffset="21.466115282336823" xlink:href="#id76">April</textPath></text><path d="M 120.99824983174949 100.27111621757518 l 48.00471246955512 0.6198067065023469 a69.00871358032921,69.00871358032921 0 0,0 -0.02555930706743216,1.1876405660549516 l -47.98693109980269 -1.4460370883474134" fill="#39ff8d" stroke="none" /><path d="M 120.81339534386255 102.79330883721812 l 35.697435238293394 4.790855104116873 a57.01748429889008,57.01748429889008 0 0,0 -0.1389216044189878,0.9716173777449396 l -35.60967958285781 -5.404617953842221" fill="#5eff2a" stroke="none" /><path d="M 120.64145759157962 103.86396538481128 l 53.07285279922422 9.934941133858823 a74.99472899812872,74.99472899812872 0 0,0 -0.24844706299389147,1.2668262216355093 l -52.89397580325467 -10.847031082562276" fill="#41ffd0" stroke="none" /><path d="M 120.41448212921028 104.9243191809786 l 46.67801758820326 11.259529185447805 a69.016812924668,69.016812924668 0 0,0 -0.2885188237238219,1.1524892812475742 l -46.47728745018438 -12.061346306092775" fill="#39ff8d" stroke="none" /><path d="M 120.13307415673323 105.97154293290107 l 51.774624067885476 15.356541581743116 a75.0040282453325,75.0040282453325 0 0,0 -0.37778181631190494,1.2346128340169098 l -51.50261547906744 -16.245481388312083" fill="#41ffd0" stroke="none" /><path d="M 119.67450827220406 107.3425965602758 l 53.39566571733612 19.92745262069144 a77.99298628206287,77.99298628206287 0 0,0 -0.48023520370742306,1.2537425771966821 l -53.04473623403519 -20.843618764721267" fill="#45fff0" stroke="none" /><path d="M 119.41010516605496 108.01547362559984 l 27.72204090511014 11.447917763542575 a50.99277201369412,50.99277201369412 0 0,0 -0.3420134240196717,0.8084187052502999 l -27.520876499898158 -11.923410994459038" fill="#a2ff22" stroke="none" /><path d="M 118.97047184881838 109.00673069616215 l 24.17807715233226 11.479178346091159 a47.76473333111129,47.76473333111129 0 0,0 -0.35902417166583456,0.7396961330786147 l -23.976899724051712 -11.89366343513505" fill="#c8ff1d" stroke="none" /><path d="M 118.81262510543309 109.33194174019688 l 35.28613442796206 17.503572673831616 a60.38891137384117,60.38891137384117 0 0,0 -0.46994458223201097,0.927245244397826 l -34.97961117594378 -18.108372129932135" fill="#3aff2e" stroke="none" /><line stroke="#e1ed5e" stroke-width="0.3" x1="174.80103733775053" x2="179.2010983576182" y1="140.37084112569926" y2="142.7455964860345" /><path d="M 175.68104954172406 140.8457921977663 a86.0,86.0 0 0,1 -30.038265399797805,32.042727171017184" fill="none" id="id77" stroke="none" /><text fill="#e1ed5e" style="font-size:6.75px; font-family:Arial;" text-anchor="middle"><textPath startOffset="22.206326154141568" xlink:href="#id77">May</textPath></text><path d="M 117.94076556474637 110.91462005526583 l 30.75797781582387 18.712224978162944 a57.00278548879376,57.00278548879376 0 0,0 -0.5171926796684351,0.8338792773597997 l -30.431320496487476 -19.238900586888015" fill="#5eff2a" stroke="none" /><path d="M 117.75023020441432 111.22182372390056 l 24.988272669909218 15.797766442304871 a50.56320678802193,50.56320678802193 0 0,0 -0.47142999910262906,0.7316698276945159 l -24.71263780742954 -16.22555786992084" fill="#a7ff21" stroke="none" /><path d="M 117.35343817320211 111.8261652097733 l 36.8604289593268 25.119951344816066 a65.60608903088797,65.60608903088797 0 0,0 -0.6439990322603512,0.9277286376885007 l -36.422569019904316 -25.750721244691587" fill="#35ff64" stroke="none" /><path d="M 116.93607887273984 112.41649034213515 l 50.80823661821952 37.24947102640542 a84.0,84.0 0 0,0 -0.8649549332196318,1.15874848196274 l -50.159520418304794 -38.11853238787748" fill="#4dd2ff" stroke="none" /><path d="M 115.80600337817218 113.82643327865902 l 31.612383059295496 27.653195731462965 a63.00049995952708,63.00049995952708 0 0,0 -0.7210291730001217,0.8100839194434194 l -31.131695036647038 -28.19325382064725" fill="#31ff43" stroke="none" /><path d="M 115.32070863581623 114.36230785411682 l 38.58536413120025 36.1716217890838 a73.8887185323093,73.8887185323093 0 0,0 -0.8778452952768983,0.9204172825185872 l -37.95701228454439 -36.830446188184894" fill="#40ffc4" stroke="none" /><path d="M 114.55890576462653 115.13401014063108 l 33.28333188470355 34.59808658703923 a69.00841360461297,69.00841360461297 0 0,0 -0.863144637117605,0.8161571291665426 l -32.68285141319514 -35.16587835295169" fill="#39ff8d" stroke="none" /><path d="M 112.92097659922987 116.55440617244103 l 9.380607970010894 12.018471923341583 a36.245965802768346,36.245965802768346 0 0,0 -0.49513934746769045,0.37965173781331013 l -9.172339894049712 -12.178163002982265" fill="#ffa00e" stroke="none" /><path d="M 112.63410532772338 116.77436683061366 l 19.851445602978636 26.35686675269637 a53.996428860520815,53.996428860520815 0 0,0 -0.7472463700281974,0.5527950004091802 l -19.394814262531874 -26.69467170184532" fill="#7fff26" stroke="none" /><line stroke="#e1ed5e" stroke-width="0.3" x1="143.8653032363475" x2="146.44561519142675" y1="172.8068346515853" y2="177.08958963109032" /><path d="M 144.38136562736335 173.6633856474863 a86.0,86.0 0 0,1 -40.68145358897372,12.25698825130547" fill="none" id="id78" stroke="none" /><text fill="#e1ed5e" style="font-size:6.75px; font-family:Arial;" text-anchor="middle"><textPath startOffset="21.466115282336833" xlink:href="#id78">June</textPath></text><path d="M 110.8373102113329 117.98757091392108 l 12.486821718570267 20.725400193619393 a45.196341248565595,45.196341248565595 0 0,0 -0.6698358813580391,0.39575084551834006 l -12.128217966183845 -20.937269611431482" fill="#e8ff1a" stroke="none" /><path d="M 110.5260780823613 118.17145234162733 l 18.05121374015037 31.162296880291382 a57.01298466314631,57.01298466314631 0 0,0 -0.8534334300172766,0.4846017748081437 l -17.512131543211893 -31.468401820894154" fill="#5eff2a" stroke="none" /><path d="M 110.21172684928248 118.3499491758327 l 11.675143348817553 20.97963353636083 a45.00945637734088,45.00945637734088 0 0,0 -0.6802368906838651,0.37091938977665023 l -11.312283646265039 -21.177493577897252" fill="#eaff1a" stroke="none" /><path d="M 109.57404056367764 118.69057910512821 l 15.043292779387128 29.367731609728562 a53.996428860520815,53.996428860520815 0 0,0 -0.8308921421601483,0.41662656911702195 l -14.535546729544219 -29.622326019754887" fill="#7fff26" stroke="none" /><path d="M 108.92500713936063 119.00905698771935 l 12.752802832393238 27.16174362763347 a51.0065708966417,51.0065708966417 0 0,0 -0.7979662364621386,0.366307161387394 l -12.28336860016368 -27.37723785935494" fill="#a2ff22" stroke="none" /><path d="M 108.59647513512805 119.15986991738527 l 9.838728971131806 21.92861193409214 a45.03465433750601,45.03465433750601 0 0,0 -0.7100020464325121,0.3112440321192269 l -9.45980625004154 -22.09472051950582" fill="#eaff1a" stroke="none" /><path d="M 107.93186726928326 119.44442032107085 l 11.333380926466864 27.78299420697973 a51.005670969492954,51.005670969492954 0 0,0 -0.8157966609998054,0.32462232753611886 l -10.853463189425192 -27.97396337892192" fill="#a2ff22" stroke="none" /><path d="M 107.59598834532513 119.57807347666477 l 10.855958812140624 27.98039565378485 a51.01257041096673,51.01257041096673 0 0,0 -0.8213747224529104,0.3105736377905143 l -10.372713868927438 -28.163117541681995" fill="#a1ff22" stroke="none" /><path d="M 106.91757812671514 119.82793768551818 l 9.885011863097876 28.33352882350234 a51.00837075093921,51.00837075093921 0 0,0 -0.8315099610288552,0.28209332486701066 l -9.395832169131793 -28.499485135267474" fill="#a1ff22" stroke="none" /><path d="M 106.57524785965236 119.94407469862006 l 7.51151867221946 22.78397601071495 a44.99025793150078,44.99025793150078 0 0,0 -0.7375802611747019,0.23614990761118518 l -7.118217065953819 -22.909898764985844" fill="#ebff1a" stroke="none" /><path d="M 106.2309692047433 120.05430185196036 l 11.56997319633052 37.237824048572165 a59.993843355537884,59.993843355537884 0 0,0 -0.9888271697554017,0.2979255147743422 l -10.927271052134872 -37.43146493245223" fill="#3eff2d" stroke="none" /><path d="M 105.53697534728816 120.25689768951611 l 7.912409139746209 28.947367898239218 a51.00927067808796,51.00927067808796 0 0,0 -0.8489632193908091,0.22421890234774083 l -7.412955477543902 -29.07927814989054" fill="#a1ff22" stroke="none" /><path d="M 104.83641907484287 120.43548508189849 l 6.907090944037483 29.184764959761086 a50.99097215939662,50.99097215939662 0 0,0 -0.8558709642408023,0.19479344498457865 l -6.403699830403819 -29.29933513832335" fill="#a2ff22" stroke="none" /><path d="M 104.13013068566511 120.58985236759428 l 8.263073566000404 41.19372430926381 a63.01429884247465,63.01429884247465 0 0,0 -1.065338896863584,0.20417473511185033 l -7.552767054565116 -41.32985624272413" fill="#31ff44" stroke="none" /><path d="M 103.7750983002368 120.6578951692458 l 8.088032662513292 44.25890866395576 a65.99185780198746,65.99185780198746 0 0,0 -1.1191937157451457,0.1945861733875568 l -7.324989975296097 -44.39157341586432" fill="#35ff69" stroke="none" /><path d="M 103.06178313531738 120.77559828337769 l 6.56235717235596 44.52859343050023 a66.0095563692463,66.0095563692463 0 0,0 -1.1255302306794452,0.15598823411735194 l -5.794898350489684 -44.634956230110184" fill="#35ff69" stroke="none" /><path d="M 102.34483914955558 120.86867818915974 l 4.0220784757229415 35.79582905604263 a57.02108400748511,57.02108400748511 0 0,0 -0.9763296721573913,0.1012005624902964 l -3.405316206959948 -35.85975898698868" fill="#5eff2a" stroke="none" /><path d="M 101.26447882468166 120.96189622390904 l 2.0875216776657486 34.605888147953955 a55.668793478623165,55.668793478623165 0 0,0 -0.9570046982289924,0.049466211601246826 l -1.4915289110232766 -34.6366941663174" fill="#6cff28" stroke="none" /><path d="M 100.90346689309514 120.98055641714683 l 1.2911303635345293 29.982984037440353 a51.010770556669215,51.010770556669215 0 0,0 -0.8775787260723074,0.03022558573699596 l -0.7748312857875695 -30.000766421603444" fill="#a1ff22" stroke="none" /><line stroke="#e1ed5e" stroke-width="0.3" x1="102.19456741930631" x2="102.32365962044197" y1="184.97166512339345" y2="189.96999836594603" /><path d="M 102.22038585953345 185.97133177190398 a86.0,86.0 0 0,1 -42.740103519485714,-10.115201625700543" fill="none" id="id79" stroke="none" /><text fill="#e1ed5e" style="font-size:6.75px; font-family:Arial;" text-anchor="middle"><textPath startOffset="22.20632615414155" xlink:href="#id79">July</textPath></text><path d="M 100.54218724476979 120.99299961872073 l 0.6997909002772367 27.095270581184078 a48.10430584190804,48.10430584190804 0 0,0 -0.8279445343331994,0.014253816003405974 l -0.23328667605136938 -27.103301874466645" fill="#c4ff1e" stroke="none" /><path d="M 100.18074693466247 120.99922214144158 l 0.16998389564710317 19.74876969187384 a40.749501230852744,40.749501230852744 0 0,0 -0.7014616606191036,0.0 l 0.16998389564708957 -19.74876969187384" fill="#ffdd14" stroke="none" /><path d="M 99.81925306533755 120.99922214144158 l -0.22289973235421626 25.89654426901062 a46.897503535428086,46.897503535428086 0 0,0 -0.8071737248145157,-0.01389622768094721 l 0.6686331470613999 -25.88887056405051" fill="#d3ff1c" stroke="none" /><path d="M 98.73552117531835 120.96189622390904 l -1.6252837026099707 26.943138661968682 a47.99211492402996,47.99211492402996 0 0,0 -0.8241782776467845,-0.05684015944406298 l 2.088824741035685 -26.911170158008332" fill="#c6ff1e" stroke="none" /><path d="M 98.01472825383883 120.90594882070398 l -2.8350505207027856 29.854563338509703 a50.98887232938286,50.98887232938286 0 0,0 -0.873044591689767,-0.09049464159260406 l 3.348527708998146 -29.80133932846134" fill="#a2ff22" stroke="none" /><path d="M 97.65516085044442 120.86867818915974 l -3.6862911945843386 32.80737813759803 a54.0138274520634,54.0138274520634 0 0,0 -0.9230514975514097,-0.11176868159284127 l 4.250470115187138 -32.739063927279844" fill="#7fff26" stroke="none" /><path d="M 97.2962882734958 120.8252237178851 l -4.374212846085866 33.69218700958418 a54.97494964693334,54.97494964693334 0 0,0 -0.9373789366433546,-0.1299121792024397 l 4.953520373916052 -33.61190026488914" fill="#74ff27" stroke="none" /><path d="M 95.51606077576429 120.51570834832081 l -8.5218693616152 38.99075738146037 a60.91116909583509,60.91116909583509 0 0,0 -1.0223790372955255,-0.23269014030808344 l 9.191768548303589 -38.8382905075746" fill="#35ff2f" stroke="none" /><path d="M 95.16358092515715 120.4354850818985 l -6.983776524343946 29.508787135693144 a51.32394520443583,51.32394520443583 0 0,0 -0.8579572560969834,-0.21086501955230477 l 7.490687065184139 -29.38420085782681" fill="#9eff22" stroke="none" /><path d="M 94.81253420990036 120.34920634021253 l -3.8149981487806675 14.965339080448274 a36.44394977549436,36.44394977549436 0 0,0 -0.6065480356301599,-0.16019484903923445 l 4.0720366272223165 -14.897452882105458" fill="#ffa20f" stroke="none" /><path d="M 94.46302465271185 120.25689768951611 l -7.201202680419363 26.345435330530968 a48.31188903755411,48.31188903755411 0 0,0 -0.8002952574358789,-0.22617143368463838 l 7.653629105959856 -26.21757510350781" fill="#c2ff1e" stroke="none" /><path d="M 94.11515582081647 120.15858648285463 l -8.408593497984032 28.80371239528681 a51.00597094520919,51.00597094520919 0 0,0 -0.8406877617671719,-0.2532923263535822 l 8.90315623419145 -28.654704699827498" fill="#a2ff22" stroke="none" /><path d="M 93.42475214034765 119.94407469862007 l -9.394141527972145 28.494357074045165 a51.00297118804667,51.00297118804667 0 0,0 -0.8314219403713807,-0.28206346348099187 l 9.883233201280751 -28.32843062366605" fill="#a2ff22" stroke="none" /><path d="M 93.08242187328487 119.8279376855182 l -4.937268760643013 14.151753045566545 a35.98828666250827,35.98828666250827 0 0,0 -0.5831480951286506,-0.20909615949769167 l 5.180136416401391 -14.064669345028896" fill="#ff9c0e" stroke="none" /><path d="M 92.7421414339146 119.70592522655815 l -14.520866338789055 39.42583114448298 a63.01489879390716,63.01489879390716 0 0,0 -1.0146292294284256,-0.3836459561978304 l 15.197365788977764 -39.17003693817852" fill="#31ff44" stroke="none" /><path d="M 92.40401165467489 119.57807347666478 l -10.845650805272506 27.953827561959674 a50.984072717922835,50.984072717922835 0 0,0 -0.8154512134999801,-0.32448486684671224 l 11.325223094814344 -27.762995850706893" fill="#a2ff22" stroke="none" /><path d="M 92.06813273071674 119.44442032107085 l -9.285991788121647 22.76396229239543 a45.58510977682759,45.58510977682759 0 0,0 -0.7239969110720604,-0.3026307675460104 l 9.676460158691171 -22.600746481829447" fill="#e3ff1b" stroke="none" /><path d="M 91.7346041902142 119.30500536409082 l -5.90927963374078 13.801961533676973 a36.013784598389655,36.013784598389655 0 0,0 -0.5677818813264859,-0.24889889120212666 l 6.145982189725009 -13.698198089180396" fill="#ff9c0e" stroke="none" /><path d="M 91.07499286063937 119.00905698771935 l -4.156421852860987 8.852615872719248 a30.779808301232755,30.779808301232755 0 0,0 -0.4776547431787021,-0.22930330375672067 l 4.308189264039931 -8.779758292462963" fill="#ff5207" stroke="none" /><path d="M 90.10565033884886 118.52300852407294 l -15.802258744025442 29.58308362240911 a54.539084931219854,54.539084931219854 0 0,0 -0.824260067558474,-0.4494523091340802 l 16.309141623452557 -29.306690661515262" fill="#79ff26" stroke="none" /><line stroke="#e1ed5e" stroke-width="0.3" x1="58.666819895761336" x2="56.23545636021788" y1="174.27360380694188" y2="178.64263932499728" /><path d="M 58.180547188652646 175.14741091055294 a86.0,86.0 0 0,1 -31.652253787137756,-30.449443065178592" fill="none" id="id80" stroke="none" /><text fill="#e1ed5e" style="font-size:6.75px; font-family:Arial;" text-anchor="middle"><textPath startOffset="22.20632615414155" xlink:href="#id80">August</textPath></text><path d="M 89.7882731507175 118.34994917583269 l -16.04818018699694 28.837756350356198 a54.00242837484585,54.00242837484585 0 0,0 -0.8083680928039038,-0.4590125002053362 l 16.542197046722052 -28.557240684356227" fill="#7fff26" stroke="none" /><path d="M 89.4739219176387 118.17145234162733 l -14.738323663794645 25.44316543698335 a50.4036197069761,50.4036197069761 0 0,0 -0.7470107556799032,-0.44134712158484135 l 15.17410229050293 -25.18569974310476" fill="#a9ff21" stroke="none" /><path d="M 89.1626897886671 117.98757091392108 l -9.926946637201594 16.476565966400656 a40.2359428046301,40.2359428046301 0 0,0 -0.5901670140076204,-0.36252878222236895 l 10.209092851141524 -16.30324871734991" fill="#ffd614" stroke="none" /><path d="M 88.54995079064634 117.60387380957326 l -16.35637978472688 25.147109889848267 a50.9984715523029,50.9984715523029 0 0,0 -0.7317680859190077,-0.4849759852529996 l 16.78682256938585 -24.861835883503947" fill="#a2ff22" stroke="none" /><path d="M 88.24862548938628 117.40417183066458 l -10.077330873153215 14.924858190198224 a39.008442173728795,39.008442173728795 0 0,0 -0.5532569496681533,-0.38053517484796096 l 10.33274470744426 -14.74918222598516" fill="#ffc512" stroke="none" /><path d="M 87.95078237400918 117.19931262002967 l -22.626254789052805 32.29720315599015 a60.43420770699514,60.43420770699514 0 0,0 -0.846863609108231,-0.6042146994753304 l 23.17884572600992 -31.9029441946706" fill="#39ff2e" stroke="none" /><path d="M 87.36589467227662 116.77436683061367 l -21.663029654931854 28.76211624553314 a57.007585100253785,57.007585100253785 0 0,0 -0.7787542106297888,-0.59711552092782 l 22.15491259405513 -28.384961382777952" fill="#5eff2a" stroke="none" /><path d="M 87.07902340077011 116.55440617244103 l -18.465534097428584 23.658115103939714 a51.01137050810173,51.01137050810173 0 0,0 -0.6875422004065204,-0.5462251060662355 l 18.870033790552462 -23.336756083868348" fill="#a1ff22" stroke="none" /><path d="M 85.97065885151581 115.62618273729859 l -20.044902884454604 22.32644513443411 a51.004471066627936,51.004471066627936 0 0,0 -0.6482436336613225,-0.592155189641409 l 20.42624606758278 -21.978097178206124" fill="#a2ff22" stroke="none" /><path d="M 85.70375840098266 115.38237550388516 l -23.886473348999285 25.701209648213272 a56.08725960279406,56.08725960279406 0 0,0 -0.7015292021368353,-0.6633396478653919 l 24.325338385526937 -25.28623536360195" fill="#68ff28" stroke="none" /><path d="M 85.44109423537348 115.13401014063109 l -20.797585130047242 21.619129167215107 a50.99877152801916,50.99877152801916 0 0,0 -0.6274064310971305,-0.6140492443778586 l 21.16664151352017 -21.25792981991468" fill="#a2ff22" stroke="none" /><path d="M 85.18274418774928 114.88116024355367 l -13.049559176378667 13.105839817577492 a39.49470280977254,39.49470280977254 0 0,0 -0.4776214304374909,-0.4838279873915495 l 13.273221231871691 -12.879271336205276" fill="#ffcc13" stroke="none" /><path d="M 84.67929136418377 114.36230785411682 l -30.649222905576543 28.731933053688497 a63.01069913387964,63.01069913387964 0 0,0 -0.7349855755973441,-0.7976816808967588 l 31.139254889169617 -28.200100117990395" fill="#31ff44" stroke="none" /><path d="M 84.43433777217949 114.09645910891817 l -22.24064142426528 20.141404060080596 a51.005370993776694,51.005370993776694 0 0,0 -0.5837471208932176,-0.655846078584276 l 22.584047394806838 -19.755583811755454" fill="#a2ff22" stroke="none" /><path d="M 84.19399662182784 113.82643327865904 l -20.335486740528143 17.788636626210977 a48.0179128356276,48.0179128356276 0 0,0 -0.5388467064044329,-0.6268004551767155 l 20.638675956503352 -17.43595907187273" fill="#c5ff1e" stroke="none" /><path d="M 83.50135304334701 112.99209946851258 l -32.99014507833998 25.97856948297319 a62.99090073660704,62.99090073660704 0 0,0 -0.6634837057252775,-0.8576421281535083 l 33.43243560128332 -25.40684936070643" fill="#31ff43" stroke="none" /><path d="M 83.28015986056508 112.70617746262583 l -28.67722030191019 21.793141994909178 a57.01838422603885,57.01838422603885 0 0,0 -0.5871230085776944,-0.7865472162606233 l 29.04810457718297 -21.29628189913925" fill="#5eff2a" stroke="none" /><path d="M 83.06392112726016 112.41649034213515 l -24.21106813277761 17.75006457529427 a51.020669755305526,51.020669755305526 0 0,0 -0.5131712599452951,-0.7127499968372448 l 24.51301918509851 -17.33068097300589" fill="#a1ff22" stroke="none" /><path d="M 82.44556493220864 111.52570212397912 l -26.01105933684414 17.078061509120985 a52.11648104677241,52.11648104677241 0 0,0 -0.48591207270763875,-0.7541463275341601 l 26.301176272928824 -16.627793581665376" fill="#95ff23" stroke="none" /><line stroke="#e1ed5e" stroke-width="0.3" x1="26.63291911575756" x2="22.317208475507996" y1="142.92168965132927" y2="145.44649492493687" /><path d="M 25.769776987707644 143.4266507060508 a86.0,86.0 0 0,1 -11.730757126820373,-40.83630448921669" fill="none" id="id81" stroke="none" /><text fill="#e1ed5e" style="font-size:6.75px; font-family:Arial;" text-anchor="middle"><textPath startOffset="21.46611528233685" xlink:href="#id81">September</textPath></text><line stroke="#e1ed5e" stroke-width="0.3" x1="15.007084014347285" x2="10.007500721073583" y1="101.09737516637583" y2="101.16192664675087" /><path d="M 14.007167355692545 101.11028546245083 a86.0,86.0 0 0,1 10.666146001902534,-42.60595125391555" fill="none" id="id82" stroke="none" /><text fill="#e1ed5e" style="font-size:6.75px; font-family:Arial;" text-anchor="middle"><textPath startOffset="22.20632615414155" xlink:href="#id82">October</textPath></text><line stroke="#e1ed5e" stroke-width="0.3" x1="26.266209847984243" x2="21.928928074336255" y1="57.711370442889674" y2="55.22380399835377" /><path d="M 25.398753493254645 57.213857153982495 a86.0,86.0 0 0,1 29.58750427330803,-30.492523968695096" fill="none" id="id83" stroke="none" /><text fill="#e1ed5e" style="font-size:6.75px; font-family:Arial;" text-anchor="middle"><textPath startOffset="21.46611528233685" xlink:href="#id83">November</textPath></text><line stroke="#e1ed5e" stroke-width="0.3" x1="56.762969772571076" x2="54.21961505331055" y1="26.818313649435495" y2="22.513508569990535" /><path d="M 56.25429882871897 25.957352633546506 a86.0,86.0 0 0,1 42.265352541879196,-11.944610805530505" fill="none" id="id84" stroke="none" /><text fill="#e1ed5e" style="font-size:6.75px; font-family:Arial;" text-anchor="middle"><textPath startOffset="22.20632615414155" xlink:href="#id84">December</textPath></text></svg>