<?xml version="1.0" encoding="utf-8" ?>
<svg baseProfile="full" height="200mm" version="1.1" viewBox="0,0,200,200" width="200mm" xmlns="http://www.w3.org/2000/svg" xmlns:ev="http://www.w3.org/2001/xml-events" xmlns:xlink="http://www.w3.org/1999/xlink"><defs /><rect fill="#1a1a1a" height="200" width="200" x="0" y="0" /><text alignment-baseline="middle" fill="#e1ed5e" style="dominant-baseline: central; font-size:9.0px; font-family:Arial;" text-anchor="middle" x="100.0" y="100.0">2024</text><line stroke="#e1ed5e" stroke-width="0.3" x1="100.0" x2="100.0" y1="15.0" y2="10.0" /><path d="M 100.0 14.0 a86.0,86.0 0 0,1 42.35913384403234,11.155469271406648" fill="none" id="id85" stroke="none" /><text fill="#e1ed5e" style="font-size:6.75px; font-family:Arial;" text-anchor="middle"><textPath startOffset="22.145653131862478" xlink:href="#id85">January</textPath></text><path d="M 100.0 79.0 l 0.0 -47.263584205197446 a68.26358420519745,68.26358420519745 0 0,0 1.171835196704653,0.01005879579572469 l -0.8113422718557982 47.25661980759616" fill="#32ff4c" stroke="none" /><path d="M 101.08105385017728 79.02784411241856 l 1.0149549900612516 -19.68985565978298 a40.71599730003375,40.71599730003375 0 0,0 0.6977086469988837,0.04197241964004389 l -1.3528079891925977 19.669531262318245" fill="#ff2a04" stroke="none" /><path d="M 101.80034050326958 79.07731436759882 l 4.726678647210468 -54.93117065431012 a76.13415457306783,76.13415457306783 0 0,0 1.3011705389327124,0.12322220285883648 l -5.668948749528194 54.841936695946096" fill="#40ffc4" stroke="none" /><path d="M 102.51750503828377 79.15144685158666 l 4.181114510089246 -34.62562606930207 a55.8771515356058,55.8771515356058 0 0,0 0.9513009963594323,0.12316495968817745 l -4.774893328339471 34.5487495134135" fill="#c9ff1d" stroke="none" /><path d="M 104.9986988182912 79.60360301121754 l 10.45674107432277 -42.667071954878125 a64.92974462819214,64.92974462819214 0 0,0 1.0802909088246293,0.27460572457848376 l -11.187637276372792 42.48128099846437" fill="#44ff2d" stroke="none" /><path d="M 106.04205211174951 79.88797359093562 l 5.057700838659328 -16.835441163848188 a38.5787490156373,38.5787490156373 0 0,0 0.6326168378870991,0.195986313482817 l -5.345958309418058 16.746138262558723" fill="#ff0000" stroke="none" /><path d="M 107.06938296918511 80.22567764915836 l 13.259566605213053 -37.0893676897747 a60.388288896388794,60.388288896388794 0 0,0 0.9731453369325112,0.3573524471890601 l -13.894301093799688 36.85628439357692" fill="#84ff25" stroke="none" /><path d="M 108.4095320186766 80.7573450057729 l 16.25363519610794 -37.191498145927895 a61.58803014962314,61.58803014962314 0 0,0 0.9651331079411545,0.4316917631845445 l -16.889681706904728 36.9070026318335" fill="#73ff27" stroke="none" /><path d="M 109.3889696526874 81.21577127319529 l 17.60180951481708 -35.21541001438149 a60.369389132635845,60.369389132635845 0 0,0 0.922998452012832,0.47128958622209904 l -18.203735188543494 34.908062476486556" fill="#85ff25" stroke="none" /><path d="M 109.71004243097381 81.37971332152246 l 18.247247772279998 -34.991503593150526 a60.46349420632242,60.46349420632242 0 0,0 0.9161980996703026,0.48782388301124363 l -18.84523468773686 34.67310924241671" fill="#83ff25" stroke="none" /><path d="M 110.02825361518725 81.54914285379988 l 18.7972876994766 -34.58489218439966 a60.36308921138486,60.36308921138486 0 0,0 0.906181652130518,0.5026436869449422 l -19.388213539763218 34.25711558202158" fill="#85ff25" stroke="none" /><line stroke="#e1ed5e" stroke-width="0.3" x1="143.13028292997686" x2="145.6673583964461" y1="26.7553504044142" y2="22.446841604673864" /><path d="M 143.63769802327073 25.89364864446614 a86.0,86.0 0 0,1 29.32050498858742,28.57503671076993" fill="none" id="id86" stroke="none" /><text fill="#e1ed5e" style="font-size:6.75px; font-family:Arial;" text-anchor="middle"><textPath startOffset="20.669276256404974" xlink:href="#id86">February</textPath></text><path d="M 111.27062007382361 82.28071324371311 l 25.359846112785018 -39.86989024777751 a68.25177185285185,68.25177185285185 0 0,0 0.9831972194954505,0.6372965590251416 l -26.040528964537476 39.42867984704848" fill="#32ff4c" stroke="none" /><path d="M 111.5731344415666 82.4767994020092 l 20.639993284076418 -31.251580501737877 a58.452244346945655,58.452244346945655 0 0,0 0.8325372977729779,0.5601682489007498 l -21.173426869946397 30.89266257878001" fill="#a1ff22" stroke="none" /><path d="M 111.8722381534696 82.67804972795209 l 22.260613489017647 -32.478900346970704 a60.375295308808646,60.375295308808646 0 0,0 0.8498682697675072,0.5932740563937656 l -22.814876849958914 32.09198147477181" fill="#85ff25" stroke="none" /><path d="M 112.45986205192187 83.09580414077388 l 23.357977791602057 -31.689582903832527 a60.367814152323085,60.367814152323085 0 0,0 0.8288989893720334,0.6220212546773732 l -23.898529769884856 31.28394262189114" fill="#85ff25" stroke="none" /><path d="M 112.7482090630111 83.31218511350987 l 23.893749251242713 -31.277684769531866 a60.35993925075936,60.35993925075936 0 0,0 0.8179923072946668,0.6360757657345713 l -24.427151503172606 30.862907952176503" fill="#85ff25" stroke="none" /><path d="M 113.31354834802062 83.75963576809568 l 24.963589623794462 -30.451520318134026 a60.37608279896501,60.37608279896501 0 0,0 0.7958880629295326,0.6639581288356704 l -25.482652020885887 30.018500005386485" fill="#85ff25" stroke="none" /><path d="M 115.16444852881244 85.47280134310134 l 31.746850048459763 -30.412764203622828 a64.96360670491619,64.96360670491619 0 0,0 0.7645417341224773,0.8119168272624919 l -32.2642476163185 29.863305916415843" fill="#44ff2d" stroke="none" /><path d="M 115.6541949942343 86.00192230759917 l 29.355357898401568 -26.249742046870217 a60.38002024974687,60.38002024974687 0 0,0 0.6842750846379065,0.7785794356731747 l -29.801644046998064 25.741950333385745" fill="#85ff25" stroke="none" /><path d="M 115.8921839302757 86.27271002978787 l 29.795684552517898 -25.736802663992787 a60.372145348183146,60.372145348183146 0 0,0 0.6707214153557112,0.7901081407840231 l -30.23310053138072 25.22152774075921" fill="#85ff25" stroke="none" /><path d="M 116.1254893667686 86.54754324733833 l 30.22856529418678 -25.217744284590726 a60.366239172010346,60.366239172010346 0 0,0 0.656995046350701,0.8014271306475906 l -30.657007159776107 24.695114872244638" fill="#85ff25" stroke="none" /><path d="M 116.7966241395341 87.39550010848427 l 50.389872418602316 -37.813499674547195 a84.0,84.0 0 0,0 0.855591921664697,1.1607747629245 l -51.03156635985084 36.94291860235382" fill="#4dd2ff" stroke="none" /><path d="M 117.21940702142032 87.97951657250589 l 45.204898464340644 -31.556529917447783 a76.12982337720777,76.12982337720777 0 0,0 0.7388590161291209,1.078017385601609 l -45.73994721728509 30.775877796776125" fill="#40ffc4" stroke="none" /><path d="M 117.42321728460499 88.27688183743584 l 32.663550519715656 -21.97749451760866 a60.36899538755765,60.36899538755765 0 0,0 0.5711354300197724,0.8647718350968523 l -33.03601038865615 21.413542804172746" fill="#85ff25" stroke="none" /><path d="M 117.81537515405839 88.88188828441811 l 33.418776440224335 -20.85578814071898 a60.39262009224885,60.39262009224885 0 0,0 0.5413250386588366,0.8842137684931901 l -33.77186944333857 20.279037256101233" fill="#84ff25" stroke="none" /><line stroke="#e1ed5e" stroke-width="0.3" x1="172.87174338648825" x2="177.1583165268699" y1="56.24261187166439" y2="53.66864786411523" /><path d="M 173.72905801456457 55.72781907015455 a86.0,86.0 0 0,1 12.242430191666344,42.057860355516425" fill="none" id="id87" stroke="none" /><text fill="#e1ed5e" style="font-size:6.75px; font-family:Arial;" text-anchor="middle"><textPath startOffset="22.145653131862474" xlink:href="#id87">March</textPath></text><path d="M 118.18653347947321 89.5 l 33.40608477488192 -19.287012037349538 a59.57402407469907,59.57402407469907 0 0,0 0.5037313803371356,0.8900450824470946 l -33.73224952024043 18.710710184803325" fill="#91ff24" stroke="none" /><path d="M 120.65975698304385 96.23510406497455 l 47.4945090174002 -8.655081668307936 a69.27669029137135,69.27669029137135 0 0,0 0.20316274357752684,1.171788716557021 l -47.636086578469964 7.838499918830323" fill="#34ff5c" stroke="none" /><path d="M 120.7213421655516 96.59031103205396 l 38.09597038851384 -6.268677430213022 a59.60827989650129,59.60827989650129 0 0,0 0.15747516308869217,1.0111035120891545 l -38.197967043740796 5.613785736192426" fill="#90ff24" stroke="none" /><path d="M 120.86939407059847 97.66154086499901 l 39.14136364949122 -4.385871437997308 a60.38632017099786,60.38632017099786 0 0,0 0.10658935312261907,1.0311553013949921 l -39.2108853950955 3.713311614319384" fill="#85ff25" stroke="none" /><path d="M 120.93736805541906 98.37931529534042 l 39.268066371310184 -3.0395966857480805 a60.38553268084148,60.38553268084148 0 0,0 0.0711285181648317,1.0341930435527618 l -39.31445885064008 2.3650602180409845" fill="#85ff25" stroke="none" /><line stroke="#e1ed5e" stroke-width="0.3" x1="184.99686870605535" x2="189.99668451229388" y1="99.2704041080226" y2="99.22748670261217" /><path d="M 185.99683186730306 99.26182062694052 a86.0,86.0 0 0,1 -10.086455211305974,41.156179273409016" fill="none" id="id88" stroke="none" /><text fill="#e1ed5e" style="font-size:6.75px; font-family:Arial;" text-anchor="middle"><textPath startOffset="21.40746469413373" xlink:href="#id88">April</textPath></text><path d="M 120.93736805541906 101.62068470465957 l 35.3415737907743 2.7356613271399564 a56.44729440881989,56.44729440881989 0 0,0 -0.08307530374717591,0.9654609563922782 l -35.289404864329384 -3.3419433309078923" fill="#c0ff1e" stroke="none" /><path d="M 120.9064616781168 101.97986365728391 l 35.274901187836136 3.340569817664566 a56.432725840926985,56.432725840926985 0 0,0 -0.09961076822196299,0.9636438229430273 l -35.21235802713251 -3.945618162890525" fill="#c0ff1e" stroke="none" /><path d="M 120.43855184770803 104.8234425847677 l 26.825263984316987 6.330689258891881 a48.562155473056585,48.562155473056585 0 0,0 -0.19843993708777075,0.8097026611126982 l -26.71263652071292 -6.790247744612678" fill="#ffbb11" stroke="none" /><line stroke="#e1ed5e" stroke-width="0.3" x1="174.33088141563837" x2="178.70328620479359" y1="141.23008692659167" y2="143.65538615756765" /><path d="M 175.20536237346943 141.71514677278685 a86.0,86.0 0 0,1 -30.301960400862466,31.631185727798858" fill="none" id="id89" stroke="none" /><text fill="#e1ed5e" style="font-size:6.75px; font-family:Arial;" text-anchor="middle"><textPath startOffset="22.145653131862474" xlink:href="#id89">May</textPath></text><line stroke="#e1ed5e" stroke-width="0.3" x1="143.1302829299769" x2="145.66735839644613" y1="173.24464959558577" y2="177.55315839532614" /><path d="M 143.63769802327073 174.10635135553383 a86.0,86.0 0 0,1 -40.68552437913181,11.842963189579606" fill="none" id="id90" stroke="none" /><text fill="#e1ed5e" style="font-size:6.75px; font-family:Arial;" text-anchor="middle"><textPath startOffset="21.407464694133747" xlink:href="#id90">June</textPath></text><line stroke="#e1ed5e" stroke-width="0.3" x1="101.45913802915013" x2="101.54496967792366" y1="184.9874750549273" y2="189.98673829345242" /><path d="M 101.47630435890484 185.9873277026323 a86.0,86.0 0 0,1 -42.54439059252881,-10.42667462771756" fill="none" id="id91" stroke="none" /><text fill="#e1ed5e" style="font-size:6.75px; font-family:Arial;" text-anchor="middle"><textPath startOffset="22.145653131862474" xlink:href="#id91">July</textPath></text><line stroke="#e1ed5e" stroke-width="0.3" x1="58.13341422392154" x2="55.67067388415222" y1="173.97424548756322" y2="178.32567169271397" /><path d="M 57.64086615596768 174.84453072859336 a86.0,86.0 0 0,1 -31.369924170532247,-30.572349798747897" fill="none" id="id92" stroke="none" /><text fill="#e1ed5e" style="font-size:6.75px; font-family:Arial;" text-anchor="middle"><textPath startOffset="22.145653131862474" xlink:href="#id92">August</textPath></text><line stroke="#e1ed5e" stroke-width="0.3" x1="26.387840678322732" x2="22.057713659400548" y1="142.50000000000003" y2="145.00000000000006" /><path d="M 25.521815274538298 143.00000000000003 a86.0,86.0 0 0,1 -11.493303480769221,-40.785679425670985" fill="none" id="id93" stroke="none" /><text fill="#e1ed5e" style="font-size:6.75px; font-family:Arial;" text-anchor="middle"><textPath startOffset="21.40746469413373" xlink:href="#id93">September</textPath></text><line stroke="#e1ed5e" stroke-width="0.3" x1="15.003131293944662" x2="10.003315487706104" y1="100.72959589197737" y2="100.7725132973878" /><path d="M 14.003168132696942 100.73817937305945 a86.0,86.0 0 0,1 10.791469493833604,-42.45332614584628" fill="none" id="id94" stroke="none" /><text fill="#e1ed5e" style="font-size:6.75px; font-family:Arial;" text-anchor="middle"><textPath startOffset="22.145653131862435" xlink:href="#id94">October</textPath></text><line stroke="#e1ed5e" stroke-width="0.3" x1="26.387840678322718" x2="22.05771365940052" y1="57.49999999999999" y2="54.99999999999999" /><path d="M 25.521815274538284 56.99999999999999 a86.0,86.0 0 0,1 29.574782752854787,-30.34633250058573" fill="none" id="id95" stroke="none" /><text fill="#e1ed5e" style="font-size:6.75px; font-family:Arial;" text-anchor="middle"><textPath startOffset="21.40746469413373" xlink:href="#id95">November</textPath></text><line stroke="#e1ed5e" stroke-width="0.3" x1="56.869717070023135" x2="54.33264160355391" y1="26.7553504044142" y2="22.446841604673864" /><path d="M 56.362301976729285 25.89364864446614 a86.0,86.0 0 0,1 42.16139366436587,-11.88097634709845" fill="none" id="id96" stroke="none" /><text fill="#e1ed5e" style="font-size:6.75px; font-family:Arial;" text-anchor="middle"><textPath startOffset="22.145653131862474" xlink:href="#id96">December</textPath></text></svg>