<?xml version="1.0" encoding="utf-8" ?>
<svg baseProfile="full" height="200mm" version="1.1" viewBox="0,0,200,200" width="200mm" xmlns="http://www.w3.org/2000/svg" xmlns:ev="http://www.w3.org/2001/xml-events" xmlns:xlink="http://www.w3.org/1999/xlink"><defs /><rect fill="#1a1a1a" height="200" width="200" x="0" y="0" /><text alignment-baseline="middle" fill="#e1ed5e" style="dominant-baseline: central; font-size:9.0px; font-family:Arial;" text-anchor="middle" x="100.0" y="100.0">2021</text><line stroke="#e1ed5e" stroke-width="0.3" x1="100.0" x2="100.0" y1="15.0" y2="10.0" /><path d="M 100.0 14.0 a86.0,86.0 0 0,1 42.46469731375804,11.215312516191453" fill="none" id="id49" stroke="none" /><text fill="#e1ed5e" style="font-size:6.75px; font-family:Arial;" text-anchor="middle"><textPath startOffset="22.20632615414155" xlink:href="#id49">January</textPath></text><line stroke="#e1ed5e" stroke-width="0.3" x1="143.23703022742887" x2="145.7803849466894" y1="26.81831364943548" y2="22.513508569990506" /><path d="M 143.74570117128098 25.957352633546492 a86.0,86.0 0 0,1 28.547481713284135,27.462654790039103" fill="none" id="id50" stroke="none" /><text fill="#e1ed5e" style="font-size:6.75px; font-family:Arial;" text-anchor="middle"><textPath startOffset="19.985693538727396" xlink:href="#id50">February</textPath></text><line stroke="#e1ed5e" stroke-width="0.3" x1="172.23445277983987" x2="176.4835382374775" y1="55.19839476539836" y2="52.563006222186495" /><path d="M 173.08426987136738 54.67131705675599 a86.0,86.0 0 0,1 12.851231095245387,41.99856678651699" fill="none" id="id51" stroke="none" /><text fill="#e1ed5e" style="font-size:6.75px; font-family:Arial;" text-anchor="middle"><textPath startOffset="22.20632615414155" xlink:href="#id51">March</textPath></text><path d="M 118.3937258080291 89.86733742301442 l 13.028304636278287 -7.176980683922131 a35.87433270547159,35.87433270547159 0 0,0 0.2933015414986481,0.5434432116128017 l -13.149914276995402 6.95165648897687" fill="#ff5d08" stroke="none" /><path d="M 118.73160827565052 90.50648371742162 l 13.101368908522705 -6.6400096151277825 a35.687940460329855,35.687940460329855 0 0,0 0.2729957282508062,0.5503427297284855 l -13.21372464972692 6.413507296900347" fill="#ff5a08" stroke="none" /><path d="M 118.89224826269711 90.83032412892265 l 13.254083428806048 -6.433096120716449 a35.732801947902786,35.732801947902786 0 0,0 0.2638132453856029,0.5556579755477203 l -13.362854868033407 6.203995729528188" fill="#ff5a08" stroke="none" /><path d="M 119.196687751892 91.48605970444005 l 13.403374854286522 -5.9445428681913 a35.662470712546515,35.662470712546515 0 0,0 0.24404896911220225,0.5632986686431859 l -13.503714533241405 5.712945054961511" fill="#ff5908" stroke="none" /><path d="M 119.47837535516314 92.15188598940014 l 17.35067134992716 -6.990831854905301 a39.706082602104104,39.706082602104104 0 0,0 0.24997143947276945,0.6361500477699099 l -17.46843633928163 6.691132802239607" fill="#ff980e" stroke="none" /><path d="M 119.7369772167798 92.82701384747503 l 13.804549820330887 -5.016971120526536 a35.687940460329855,35.687940460329855 0 0,0 0.20486053689217673,0.5791683246107654 l -13.888863438032873 4.778605169489156" fill="#ff5a08" stroke="none" /><path d="M 119.85752413597 93.16781622104841 l 13.958378912795627 -4.80252267782545 a35.761455414159045,35.761455414159045 0 0,0 0.19526215506893627,0.5838089902199124 l -14.038978361636334 4.561540584683223" fill="#ff5b08" stroke="none" /><path d="M 120.28053869075195 94.5502522615342 l 14.175786285296684 -3.8092902968350923 a35.678678733863194,35.678678733863194 0 0,0 0.15427404300265726,0.5944808200320452 l -14.239256660169644 3.5647130512541967" fill="#ff5a08" stroke="none" /><path d="M 120.37134235888165 94.90015583598534 l 14.140708291060886 -3.540042054310623 a35.577089171681905,35.577089171681905 0 0,0 0.1436081059025999,0.5953483118809165 l -14.199549197224306 3.2961085107703" fill="#ff5808" stroke="none" /><path d="M 120.53481517161879 95.60439243477599 l 14.406728968108832 -3.08385180548762 a35.73309137685487,35.73309137685487 0 0,0 0.12356963118671208,0.6025694065276953 l -14.45767789521054 2.8354067427965135" fill="#ff5a08" stroke="none" /><path d="M 120.83666639777658 97.38593545837742 l 18.681779655091095 -2.343723167540407 a39.82822161988331,39.82822161988331 0 0,0 0.07948508136114942,0.6809796363811704 l -18.719355089455835 2.0217997928343836" fill="#ff9a0e" stroke="none" /><line stroke="#e1ed5e" stroke-width="0.3" x1="184.98032266829074" x2="189.97916517819016" y1="98.17113171792111" y2="98.06355123074" /><path d="M 185.9800911702706 98.14961562048488 a86.0,86.0 0 0,1 -9.607161424134198,41.387399972396054" fill="none" id="id52" stroke="none" /><text fill="#e1ed5e" style="font-size:6.75px; font-family:Arial;" text-anchor="middle"><textPath startOffset="21.466115282336823" xlink:href="#id52">April</textPath></text><path d="M 120.9904718944345 100.63252640178507 l 14.740582272758594 0.44419237033336734 a35.74727339550696,35.74727339550696 0 0,0 -0.023827884948667853,0.6148918336984761 l -14.730752254958723 -0.6978614510458496" fill="#ff5b08" stroke="none" /><path d="M 120.9764740272857 100.99374915477107 l 14.708780297048946 0.6968205413785191 a35.725276795148616,35.725276795148616 0 0,0 -0.0343875337896679,0.6140125160530914 l -14.694606412371748 -0.9499047737670339" fill="#ff5a08" stroke="none" /><path d="M 120.95626037817324 101.35467743843564 l 14.607092098576736 0.944247578050867 a35.637579822667334,35.637579822667334 0 0,0 -0.04484130951377303,0.6118240417291548 l -14.588674230398626 -1.1955447562767918" fill="#ff5908" stroke="none" /><path d="M 120.76222939487914 103.15116336523771 l 14.575720292465093 2.212213097833136 a35.74264253227362,35.74264253227362 0 0,0 -0.09755740783054853,0.6074900716866437 l -14.535481130273256 -2.4627823992129847" fill="#ff5b08" stroke="none" /><path d="M 120.70491114924044 103.5080841355445 l 14.57143673469469 2.468874445904012 a35.779110580236136,35.779110580236136 0 0,0 -0.10811008839312175,0.6063387890927981 l -14.52678020396238 -2.719331985730028" fill="#ff5b08" stroke="none" /><path d="M 119.79798401119884 107.00284435728193 l 14.740843803514421 5.214057895623302 a36.63582027840309,36.63582027840309 0 0,0 -0.21541118964550102,0.5927190784797594 l -14.648908352863694 -5.467024771109191" fill="#ff6909" stroke="none" /><path d="M 119.67450827220406 107.3425965602758 l 13.717200578389125 5.119308111287797 a35.641342399044426,35.641342399044426 0 0,0 -0.21945854548394914,0.5729370114451436 l -13.627047753311668 -5.354668689566085" fill="#ff5908" stroke="none" /><line stroke="#e1ed5e" stroke-width="0.3" x1="174.80103733775053" x2="179.2010983576182" y1="140.37084112569926" y2="142.7455964860345" /><path d="M 175.68104954172406 140.8457921977663 a86.0,86.0 0 0,1 -30.038265399797805,32.042727171017184" fill="none" id="id53" stroke="none" /><text fill="#e1ed5e" style="font-size:6.75px; font-family:Arial;" text-anchor="middle"><textPath startOffset="22.206326154141568" xlink:href="#id53">May</textPath></text><path d="M 118.48025628344425 109.97397251340804 l 8.104331437721035 4.373985823551211 a30.209339826342628,30.209339826342628 0 0,0 -0.25091531050524724,0.45548417184568446 l -8.027839717764278 -4.512840513794702" fill="#ff0000" stroke="none" /><path d="M 117.94076556474637 110.91462005526583 l 12.593977293736764 7.66179551534232 a35.741484816465295,35.741484816465295 0 0,0 -0.3242865089670158,0.5228531075271712 l -12.460226145101787 -7.877444954234763" fill="#ff5b08" stroke="none" /><path d="M 117.75023020441432 111.22182372390056 l 12.525300265114291 7.918585282859158 a35.81847291771948,35.81847291771948 0 0,0 -0.3339563237404909,0.5183076306425372 l -12.38713907799675 -8.13301451342315" fill="#ff5c08" stroke="none" /><line stroke="#e1ed5e" stroke-width="0.3" x1="143.8653032363475" x2="146.44561519142675" y1="172.8068346515853" y2="177.08958963109032" /><path d="M 144.38136562736335 173.6633856474863 a86.0,86.0 0 0,1 -40.68145358897372,12.25698825130547" fill="none" id="id54" stroke="none" /><text fill="#e1ed5e" style="font-size:6.75px; font-family:Arial;" text-anchor="middle"><textPath startOffset="21.466115282336833" xlink:href="#id54">June</textPath></text><path d="M 107.59598834532513 119.57807347666477 l 4.673799380098704 12.046357039907505 a33.921266136812605,33.921266136812605 0 0,0 -0.5461804871605911,0.20651872543762745 l -4.465748672177839 -12.125024015451764" fill="#ff3d05" stroke="none" /><path d="M 106.91757812671514 119.82793768551818 l 5.086979811581933 14.580871638009492 a36.442771167363446,36.442771167363446 0 0,0 -0.5940696945824311,0.20154069488251394 l -4.835240384062274 -14.66627531979013" fill="#ff6609" stroke="none" /><path d="M 106.57524785965236 119.94407469862006 l 4.761111389494408 14.441426882658622 a36.20601828455919,36.20601828455919 0 0,0 -0.5935694892676598,0.19004220615683684 l -4.511820555135808 -14.521241935475164" fill="#ff6209" stroke="none" /><path d="M 105.88484417918355 120.15858648285463 l 4.2220181524426845 14.462561024004195 a36.0662241007029,36.0662241007029 0 0,0 -0.5974435832756703,0.16884352433635658 l -3.97244340106241 -14.53309334167907" fill="#ff6008" stroke="none" /><path d="M 105.53697534728816 120.25689768951611 l 4.035782715688899 14.764818775808239 a36.30645013093215,36.30645013093215 0 0,0 -0.6042595861118335,0.15959044872205064 l -3.781032686765567 -14.832100573833873" fill="#ff6409" stroke="none" /><path d="M 101.62511606390274 120.93702456842531 l 1.4833672993083595 19.110818162140013 a40.16830063858134,40.16830063858134 0 0,0 -0.6898183355476151,0.04757391118328942 l -1.1541862029818144 -19.133520417839588" fill="#ff9f0e" stroke="none" /><path d="M 101.26447882468166 120.96189622390904 l 0.9643488183547547 15.986491398217574 a37.01555106353655,37.01555106353655 0 0,0 -0.6363359803898481,0.03289130169757977 l -0.6890247695514271 -16.000722506677356" fill="#ff6f0a" stroke="none" /><line stroke="#e1ed5e" stroke-width="0.3" x1="102.19456741930631" x2="102.32365962044197" y1="184.97166512339345" y2="189.96999836594603" /><path d="M 102.22038585953345 185.97133177190398 a86.0,86.0 0 0,1 -42.740103519485714,-10.115201625700543" fill="none" id="id55" stroke="none" /><text fill="#e1ed5e" style="font-size:6.75px; font-family:Arial;" text-anchor="middle"><textPath startOffset="22.20632615414155" xlink:href="#id55">July</textPath></text><path d="M 99.81925306533755 120.99922214144158 l -0.1295329504558917 15.04916919525905 a36.049726650434145,36.049726650434145 0 0,0 -0.6204678276103557,-0.010681916341067143 l 0.3885604679589154 -15.044709801638824" fill="#ff5f08" stroke="none" /><path d="M 98.73552117531835 120.96189622390904 l -1.05098075069488 17.422632154349134 a38.45430238434328,38.45430238434328 0 0,0 -0.6603834975267509,-0.0455439124176181 l 1.350727009000561 -17.401959897415228" fill="#ff850c" stroke="none" /><path d="M 96.58105272829116 120.7198165907248 l -2.3652888857081438 14.334339783911728 a35.5281756787798,35.5281756787798 0 0,0 -0.6025426814151975,-0.10475976859930769 l 2.6116805385953903 -14.291501436791414" fill="#ff5708" stroke="none" /><path d="M 95.86986931433489 120.58985236759428 l -2.869992084906721 14.307710293403805 a35.5927183350944,35.5927183350944 0 0,0 -0.5996670313283429,-0.12566605686819193 l 3.1158505776644514 -14.256188255809072" fill="#ff5808" stroke="none" /><path d="M 95.51606077576429 120.51570834832081 l -4.975262945636211 22.763699159253882 a44.301056645380626,44.301056645380626 0 0,0 -0.7435823727667675,-0.16923692714535052 l 5.36636546779584 -22.674685498530845" fill="#ffdc14" stroke="none" /><path d="M 94.46302465271185 120.25689768951611 l -4.217482604996928 15.429563665761902 a36.99558046584279,36.99558046584279 0 0,0 -0.6128385410449739,-0.17319429317803967 l 4.482452314146517 -15.354680579245342" fill="#ff6e0a" stroke="none" /><path d="M 93.76903079525671 120.05430185196036 l -4.885644356508254 15.724389488581938 a37.46590251297836,37.46590251297836 0 0,0 -0.614224310577245,-0.19665522768240717 l 5.1555900121764395 -15.637961414239824" fill="#ff760a" stroke="none" /><path d="M 93.42475214034765 119.94407469862007 l -5.091248219825362 15.442799567829848 a37.26040795699913,37.26040795699913 0 0,0 -0.6073983527041633,-0.20606249938491852 l 5.356316305466751 -15.352874081546807" fill="#ff730a" stroke="none" /><line stroke="#e1ed5e" stroke-width="0.3" x1="58.666819895761336" x2="56.23545636021788" y1="174.27360380694188" y2="178.64263932499728" /><path d="M 58.180547188652646 175.14741091055294 a86.0,86.0 0 0,1 -31.652253787137756,-30.449443065178592" fill="none" id="id56" stroke="none" /><text fill="#e1ed5e" style="font-size:6.75px; font-family:Arial;" text-anchor="middle"><textPath startOffset="22.20632615414155" xlink:href="#id56">August</textPath></text><path d="M 89.7882731507175 118.34994917583269 l -6.17728078938565 11.100256617032294 a33.70332613589379,33.70332613589379 0 0,0 -0.5045086728416627,-0.2864731913070496 l 6.36743822914852 -10.992280259930611" fill="#ff3a05" stroke="none" /><path d="M 89.4739219176387 118.17145234162733 l -7.314045379707721 12.626433701320577 a35.59185004823816,35.59185004823816 0 0,0 -0.527491774502464,-0.3116514381703244 l 7.530305025238568 -12.498663690856503" fill="#ff5808" stroke="none" /><path d="M 88.8546689885994 117.79835938074946 l -7.899938832893661 12.615681875213353 a35.88504157669867,35.88504157669867 0 0,0 -0.5207059620344212,-0.33233918132027496 l 8.115926596975006 -12.477828265069274" fill="#ff5d08" stroke="none" /><path d="M 88.54995079064634 117.60387380957326 l -9.96780780437748 15.325002324269105 a39.28149032939771,39.28149032939771 0 0,0 -0.5636431860690021,-0.37355196920300254 l 10.230125689186444 -15.151152333974787" fill="#ff920d" stroke="none" /><line stroke="#e1ed5e" stroke-width="0.3" x1="26.63291911575756" x2="22.317208475507996" y1="142.92168965132927" y2="145.44649492493687" /><path d="M 25.769776987707644 143.4266507060508 a86.0,86.0 0 0,1 -11.730757126820373,-40.83630448921669" fill="none" id="id57" stroke="none" /><text fill="#e1ed5e" style="font-size:6.75px; font-family:Arial;" text-anchor="middle"><textPath startOffset="21.46611528233685" xlink:href="#id57">September</textPath></text><path d="M 80.58989483394504 108.01547362559985 l -13.56843663374338 5.603135328117208 a35.67983644967152,35.67983644967152 0 0,0 -0.22953583943212327,-0.5696891293733417 l 13.66287508743289 -5.368746830901061" fill="#ff5a08" stroke="none" /><path d="M 80.0844068197444 106.66101706037122 l -16.608709896780713 5.55498894619381 a38.5130564616162,38.5130564616162 0 0,0 -0.20486699256244,-0.6305157703200273 l 16.701869140359403 -5.268274275895979" fill="#ff860c" stroke="none" /><path d="M 79.86692584326677 105.97154293290107 l -13.470577727929042 3.99542228906991 a35.05061790784215,35.05061790784215 0 0,0 -0.16658617851878213,-0.5799083414773568 l 13.537356543333928 -3.762956472087957" fill="#ff5007" stroke="none" /><path d="M 79.58551787078972 104.9243191809786 l -25.6005877859335 6.175295786622807 a47.33485092111913,47.33485092111913 0 0,0 -0.1842439964787532,-0.7937183147170837 l 25.703092348342807 -5.733708814557149" fill="#f7ff19" stroke="none" /><path d="M 79.4281124754447 104.21870165774334 l -17.072388965914996 3.5010552894660396 a38.4276749207516,38.4276749207516 0 0,0 -0.12730551999171383,-0.649128103753889 l 17.130124418882378 -3.206663458644196" fill="#ff850c" stroke="none" /><path d="M 79.23777060512086 103.15116336523772 l -29.624735858773114 4.496260038723724 a50.96400055129324,50.96400055129324 0 0,0 -0.12417245010464237,-0.868461826822556 l 29.697742359894356 -3.985652739920768" fill="#c6ff1e" stroke="none" /><path d="M 79.07016306316243 101.71520430193888 l -20.616663422328088 1.6895396701043837 a41.68577663435476,41.68577663435476 0 0,0 -0.0524515082585473,-0.7156591572705014 l 20.642691489250968 -1.3344073763371211" fill="#ffb610" stroke="none" /><line stroke="#e1ed5e" stroke-width="0.3" x1="15.007084014347285" x2="10.007500721073583" y1="101.09737516637583" y2="101.16192664675087" /><path d="M 14.007167355692545 101.11028546245083 a86.0,86.0 0 0,1 10.666146001902534,-42.60595125391555" fill="none" id="id58" stroke="none" /><text fill="#e1ed5e" style="font-size:6.75px; font-family:Arial;" text-anchor="middle"><textPath startOffset="22.20632615414155" xlink:href="#id58">October</textPath></text><path d="M 79.00486145842228 99.54816195383935 l -12.05713372651895 -0.2594825337541493 a33.05992557541232,33.05992557541232 0 0,0 0.017141265282796362,-0.5688351444906853 l 12.050880766780509 0.466987825669829" fill="#ff2f04" stroke="none" /><path d="M 79.01574976396665 99.18683210126434 l -14.700640044529452 -0.569669558865254 a35.7116736344007,35.7116736344007 0 0,0 0.02909037522988047,-0.6140518434898102 l 14.688656061066071 0.8226325089780733" fill="#ff5a08" stroke="none" /><path d="M 79.12142395522702 97.74499172005258 l -28.89496320396766 -3.1208249611465146 a50.06300822345753,50.06300822345753 0 0,0 0.09991061915350145,-0.8559731705203031 l 28.836962231810567 3.6177418699916797" fill="#d2ff1c" stroke="none" /><path d="M 79.62865764111835 94.90015583598534 l -17.14713546033876 -4.292683180441038 a38.676294390591266,38.676294390591266 0 0,0 0.16723568572997824,-0.644427316847253 l 17.070703442738473 4.587206922837154" fill="#ff880c" stroke="none" /><path d="M 79.71946130924805 94.55025226153421 l -18.08142280561473 -4.8588055054019375 a39.722869481324935,39.722869481324935 0 0,0 0.1831285369932389,-0.6588107826719107 l 17.99510749805513 5.169327591492791" fill="#ff980e" stroke="none" /><path d="M 80.14247586403 93.16781622104843 l -32.91174573856395 -11.323621909374111 a55.805278632792756,55.805278632792756 0 0,0 0.3203406863682538,-0.9056462579038141 l 32.71195197138589 11.888465793704537" fill="#87ff25" stroke="none" /><path d="M 80.65960295795068 91.81776055985345 l -16.852721035326777 -7.129791515098429 a39.29885606652272,39.29885606652272 0 0,0 0.2689338433006971,-0.6207363892397021 l 16.7274964821834 7.4188270489247286" fill="#ff920d" stroke="none" /><path d="M 81.43458229118936 90.18545643968196 l -41.82477210245006 -22.110520438495882 a68.30947764965313,68.30947764965313 0 0,0 0.5584849551934411,-1.0347878028085755 l 41.43797904803815 22.827189224636932" fill="#37ff73" stroke="none" /><line stroke="#e1ed5e" stroke-width="0.3" x1="26.266209847984243" x2="21.928928074336255" y1="57.71137044288968" y2="55.22380399835378" /><path d="M 25.398753493254645 57.2138571539825 a86.0,86.0 0 0,1 29.58750427330803,-30.4925239686951" fill="none" id="id59" stroke="none" /><text fill="#e1ed5e" style="font-size:6.75px; font-family:Arial;" text-anchor="middle"><textPath startOffset="21.46611528233685" xlink:href="#id59">November</textPath></text><path d="M 82.7489923806493 88.02491185347247 l -23.983711249980008 -16.64871192667088 a50.195856112463815,50.195856112463815 0 0,0 0.49882103375293135,-0.7055469770265737 l 23.693577596423196 17.05908540402924" fill="#d0ff1d" stroke="none" /><path d="M 84.31358615837235 86.03803664274999 l -10.93343116826564 -9.731489101431267 a35.637000964763175,35.637000964763175 0 0,0 0.4117878530224726,-0.45470643231335406 l 10.764299674627122 9.918248321014177" fill="#ff5908" stroke="none" /><path d="M 84.5562425177563 85.77008943001954 l -46.331272446731106 -42.68973170994139 a84.0,84.0 0 0,0 0.988930712118167,-1.05492233248779 l 45.58957441264248 43.48092345930723" fill="#4dd2ff" stroke="none" /><line stroke="#e1ed5e" stroke-width="0.3" x1="56.76296977257108" x2="54.21961505331056" y1="26.818313649435495" y2="22.513508569990535" /><path d="M 56.25429882871898 25.957352633546506 a86.0,86.0 0 0,1 42.26535254187918,-11.944610805530505" fill="none" id="id60" stroke="none" /><text fill="#e1ed5e" style="font-size:6.75px; font-family:Arial;" text-anchor="middle"><textPath startOffset="22.20632615414155" xlink:href="#id60">December</textPath></text><path d="M 89.94658935756843 81.56283822128135 l -13.467422715143735 -24.698190511935554 a49.13133642670097,49.13133642670097 0 0,0 0.7459890471589511,-0.3984815137555569 l 13.04028862145648 24.92635075219286" fill="#deff1b" stroke="none" /><path d="M 90.58718382345135 81.22770947309562 l -12.124098156781315 -24.179489826099736 a48.048872145908945,48.048872145908945 0 0,0 0.7425352190042819,-0.3643588071703483 l 11.70609167076661 24.384603793404917" fill="#edff1a" stroke="none" /><path d="M 92.23578459929587 80.48803036053334 l -7.308713812671831 -18.367265030214174 a40.767997427298205,40.767997427298205 0 0,0 0.6542619743928253,-0.25384348149478414 l 6.9914686732793285 18.490351215599507" fill="#ffa80f" stroke="none" /><path d="M 93.94186890950719 79.89281104454417 l -6.687378510095655 -22.195687302007485 a44.18123305921809,44.18123305921809 0 0,0 0.7300628602185738,-0.21312536853958192 l 6.30432543215366 22.307510999465766" fill="#ffdb14" stroke="none" /><path d="M 97.47563105711357 79.15227682838746 l -1.9086024459346294 -15.762361341686786 a36.87749345339275,36.87749345339275 0 0,0 0.6308392161695748,-0.0708821362685926 l 1.6369965262553365 15.792879431425977" fill="#ff6d0a" stroke="none" /><path d="M 98.55514903715128 79.0497635885617 l -1.4001320721577066 -20.30181567039057 a41.35003904993798,41.35003904993798 0 0,0 0.7105077795800576,-0.042859769576848124 l 1.0504622437380262 20.322908709347725" fill="#ffb110" stroke="none" /><path d="M 99.27714615592234 79.0124445844662 l -0.8297460181630748 -24.091094873039214 a45.10537970322048,45.10537970322048 0 0,0 0.7761848968650186,-0.020046565917521394 l 0.4149344861031771 24.101808231099096" fill="#ffe815" stroke="none" /><path d="M 99.63851952072746 79.00311137660856 l -0.3765129655975974 -21.870062858788778 a42.87330362475306,42.87330362475306 0 0,0 0.7379934448701279,-0.0063521425728428026 l 5.357414254166407e-15 21.873303624753063" fill="#ffc812" stroke="none" /></svg>