<?xml version="1.0" encoding="utf-8" ?>
<svg baseProfile="full" height="200mm" version="1.1" viewBox="0,0,200,200" width="200mm" xmlns="http://www.w3.org/2000/svg" xmlns:ev="http://www.w3.org/2001/xml-events" xmlns:xlink="http://www.w3.org/1999/xlink"><defs /><rect fill="#1a1a1a" height="200" width="200" x="0" y="0" /><text alignment-baseline="middle" fill="#e1ed5e" style="dominant-baseline: central; font-size:9.0px; font-family:Arial;" text-anchor="middle" x="100.0" y="100.0">2022</text><line stroke="#e1ed5e" stroke-width="0.3" x1="100.0" x2="100.0" y1="15.0" y2="10.0" /><path d="M 100.0 14.0 a86.0,86.0 0 0,1 42.46469731375804,11.215312516191453" fill="none" id="id61" stroke="none" /><text fill="#e1ed5e" style="font-size:6.75px; font-family:Arial;" text-anchor="middle"><textPath startOffset="22.20632615414155" xlink:href="#id61">January</textPath></text><path d="M 101.08401301168833 79.027996857942 l 1.0580428864630098 -20.469568630707656 a41.496894756934424,41.496894756934424 0 0,0 0.7130311658862127,0.04301198712990779 l -1.4102361011888345 20.448323374197443" fill="#ffc612" stroke="none" /><path d="M 103.2404852339499 79.25152402106235 l 3.130491761754033 -20.04419968976161 a41.28718610042924,41.28718610042924 0 0,0 0.7012349258443855,0.11570977117702122 l -3.4750558937372937 19.987343655644963" fill="#ffc312" stroke="none" /><path d="M 107.4271985657038 80.35727306442388 l 9.89994622177684 -26.182407618561317 a48.9915595117273,48.9915595117273 0 0,0 0.7862371584939426,0.3050478025685155 l -10.349166545270451 26.008117112102255" fill="#d2ff1c" stroke="none" /><line stroke="#e1ed5e" stroke-width="0.3" x1="143.23703022742887" x2="145.7803849466894" y1="26.81831364943548" y2="22.513508569990506" /><path d="M 143.74570117128098 25.957352633546492 a86.0,86.0 0 0,1 28.547481713284135,27.462654790039103" fill="none" id="id62" stroke="none" /><text fill="#e1ed5e" style="font-size:6.75px; font-family:Arial;" text-anchor="middle"><textPath startOffset="19.985693538727396" xlink:href="#id62">February</textPath></text><path d="M 114.94478906791727 85.2469230424477 l 14.741209645330807 -14.552109056650993 a41.713935883946775,41.713935883946775 0 0,0 0.5000423030279353,0.5153375482296516 l -14.98951621206185 14.296207312871227" fill="#ffc912" stroke="none" /><path d="M 115.9244219780498 86.31012108654704 l 18.147337780756747 -15.600871238060144 a44.9314239424948,44.9314239424948 0 0,0 0.49914401555689836,0.5908290762924011 l -18.413192409800764 15.286183212138635" fill="#fff617" stroke="none" /><path d="M 116.15771136456269 86.58626213691792 l 15.737667135753684 -13.065027389858624 a41.45407312917253,41.45407312917253 0 0,0 0.45106277236146397,0.552949624652599 l -15.960228400191557 12.792193595597922" fill="#ffc512" stroke="none" /><path d="M 117.45458315368197 88.32363383020206 l 23.05001554502748 -15.419470024209742 a48.73199005577334,48.73199005577334 0 0,0 0.46040908536997976,0.701234623870206 l -23.312021265755384 15.020417336361863" fill="#d5ff1c" stroke="none" /><line stroke="#e1ed5e" stroke-width="0.3" x1="172.23445277983987" x2="176.4835382374775" y1="55.19839476539836" y2="52.563006222186495" /><path d="M 173.08426987136738 54.67131705675599 a86.0,86.0 0 0,1 12.851231095245387,41.99856678651699" fill="none" id="id63" stroke="none" /><text fill="#e1ed5e" style="font-size:6.75px; font-family:Arial;" text-anchor="middle"><textPath startOffset="22.20632615414155" xlink:href="#id63">March</textPath></text><path d="M 118.89224826269711 90.83032412892265 l 25.28946232027219 -12.274673146689494 a49.11093213158409,49.11093213158409 0 0,0 0.36258321999027276,0.7636927315491175 l -25.49700373410422 11.837537999499837" fill="#d0ff1d" stroke="none" /><path d="M 119.85752413597 93.16781622104841 l 13.94393906345725 -4.797554500335414 a35.746184787567856,35.746184787567856 0 0,0 0.1951787754798531,0.5835596958613081 l -14.024455132708873 4.556821701551792" fill="#ff710a" stroke="none" /><path d="M 119.97218684219823 93.5106431181261 l 18.849903137576522 -6.124704801481072 a40.8199610797121,40.8199610797121 0 0,0 0.2113784247720926,0.6701273708909902 l -18.95253704611682 5.799327264163662" fill="#ffbc11" stroke="none" /><path d="M 120.08093135843002 93.85539295169968 l 13.524745382604648 -4.138465707644199 a35.14374901069843,35.14374901069843 0 0,0 0.1720271500802974,0.5799900307935137 l -13.593978429796648 3.9050462901041554" fill="#ff6809" stroke="none" /><line stroke="#e1ed5e" stroke-width="0.3" x1="184.98032266829074" x2="189.97916517819016" y1="98.17113171792111" y2="98.06355123074" /><path d="M 185.9800911702706 98.14961562048488 a86.0,86.0 0 0,1 -9.607161424134198,41.387399972396054" fill="none" id="id64" stroke="none" /><text fill="#e1ed5e" style="font-size:6.75px; font-family:Arial;" text-anchor="middle"><textPath startOffset="21.466115282336823" xlink:href="#id64">April</textPath></text><path d="M 120.89721153311464 102.0752229133903 l 27.826238804371794 2.763318362777557 a48.963109526159464,48.963109526159464 0 0,0 -0.09050643919797298,0.837977221698073 l -27.774550063672766 -3.2418919063604212" fill="#d2ff1c" stroke="none" /><path d="M 120.41448212921028 104.9243191809786 l 21.23296982507691 5.121752289231881 a42.84196314677045,42.84196314677045 0 0,0 -0.17909712560354366,0.7154039895778623 l -21.141661385178306 -5.48648411820714" fill="#ffd914" stroke="none" /><path d="M 120.32669344350535 105.2749913415812 l 18.16672557672815 4.714456898189784 a39.76848480898333,39.76848480898333 0 0,0 -0.17765514575731126,0.6611208866993599 l -18.082882354629064 -5.0264687180646925" fill="#ffad10" stroke="none" /><path d="M 118.81262510543309 109.33194174019688 l 15.904961435960969 7.889604596309152 a38.754257488430994,38.754257488430994 0 0,0 -0.3015843957240399,0.5950546240825664 l -15.76679837045066 -8.162213432094411" fill="#ff9e0e" stroke="none" /><line stroke="#e1ed5e" stroke-width="0.3" x1="174.80103733775053" x2="179.2010983576182" y1="140.37084112569926" y2="142.7455964860345" /><path d="M 175.68104954172406 140.8457921977663 a86.0,86.0 0 0,1 -30.038265399797805,32.042727171017184" fill="none" id="id65" stroke="none" /><text fill="#e1ed5e" style="font-size:6.75px; font-family:Arial;" text-anchor="middle"><textPath startOffset="22.206326154141568" xlink:href="#id65">May</textPath></text><path d="M 117.55443506779139 111.5257021239791 l 16.645240894059878 10.928753194616311 a40.912350208102495,40.912350208102495 0 0,0 -0.3915835877227448,0.5853643328866274 l -16.454654200926413 -11.213654441708744" fill="#ffbd11" stroke="none" /><path d="M 117.14729908036423 112.12312394758627 l 22.054122632136917 15.592243476456826 a48.00930176258624,48.00930176258624 0 0,0 -0.4828826041045621,0.670681702995165 l -21.782460235656753 -15.969558784903125" fill="#dfff1b" stroke="none" /><path d="M 116.27256486870786 113.27417163493432 l 12.623400643897622 10.297404749380679 a37.290696375199026,37.290696375199026 0 0,0 -0.4100271885613713,0.4939041624357153 l -12.444277455442707 -10.513170168930163" fill="#ff880c" stroke="none" /><path d="M 116.0416608686014 113.55231037782055 l 20.40155304566115 17.23563297647969 a47.70749727651095,47.70749727651095 0 0,0 -0.5353632896591126,0.6227484545324082 l -20.101847246431255 -17.584258530173628" fill="#e3ff1b" stroke="none" /><path d="M 115.07121518719521 114.62390073753431 l 11.809754207361147 11.459240089004961 a37.455530312200295,37.455530312200295 0 0,0 -0.45296109839522986,0.4588472012289947 l -11.610752483910382 -11.660827784214622" fill="#ff8b0c" stroke="none" /><path d="M 114.81725581225074 114.88116024355365 l 17.774871073799964 17.851531222065386 a46.191728973267914,46.191728973267914 0 0,0 -0.5682683514327701,0.55617018651044 l -17.464952769991402 -18.1548515114984" fill="#f7ff18" stroke="none" /><path d="M 114.55890576462653 115.13401014063108 l 12.3581046855782 12.846273247055294 a38.82552910176072,38.82552910176072 0 0,0 -0.48562262884997126,0.4591865066138381 l -12.13514622233742 -13.057094390415054" fill="#ff9f0e" stroke="none" /><path d="M 114.29624159901734 115.38237550388516 l 24.224168665924026 26.064560822356608 a56.583306176035165,56.583306176035165 0 0,0 -0.7191480910018174,0.6569247302934975 l -23.771921025455345 -26.477678319236688" fill="#74ff27" stroke="none" /><path d="M 113.48314897796784 116.09983520530334 l 11.450426078529608 13.672620038247134 a38.83403476754904,38.83403476754904 0 0,0 -0.5161780539408076,0.42477939717028834 l -11.21337789604411 -13.867694554274602" fill="#ff9f0e" stroke="none" /><path d="M 113.20401910651253 116.32954008644616 l 14.911459747032891 18.441148692863024 a44.715556010763606,44.715556010763606 0 0,0 -0.6026858613249644,0.4788100982488083 l -14.591816392990575 -18.69509270511696" fill="#fff316" stroke="none" /><path d="M 112.63410532772338 116.77436683061366 l 9.412672564410487 12.497253929441959 a36.645438970567696,36.645438970567696 0 0,0 -0.5071293014502966,0.3751621334636197 l -9.196158292541627 -12.657426011645347" fill="#ff7f0b" stroke="none" /><path d="M 112.34349029814194 116.9893568818739 l 24.475679681814153 33.68788300529263 a62.64051341260161,62.64051341260161 0 0,0 -0.8777805365163838,0.6262731062857073 l -23.892171817448883 -34.10420037342256" fill="#2fff2f" stroke="none" /><path d="M 111.7513745106137 117.40417183066458 l 8.549696938615197 12.662382131160147 a36.278522146388696,36.278522146388696 0 0,0 -0.5205541245252122,0.3449948887864882 l -8.33046811535002 -12.807675041037953" fill="#ff790b" stroke="none" /><path d="M 111.1453310114006 117.79835938074945 l 11.717494462935134 18.712066719232702 a43.078068697101465,43.078068697101465 0 0,0 -0.6318543421643886,0.3881365440119533 l -11.393660920838437 -18.910991730073032" fill="#ffdc14" stroke="none" /><line stroke="#e1ed5e" stroke-width="0.3" x1="143.8653032363475" x2="146.44561519142675" y1="172.8068346515853" y2="177.08958963109032" /><path d="M 144.38136562736335 173.6633856474863 a86.0,86.0 0 0,1 -40.68145358897372,12.25698825130547" fill="none" id="id66" stroke="none" /><text fill="#e1ed5e" style="font-size:6.75px; font-family:Arial;" text-anchor="middle"><textPath startOffset="21.466115282336833" xlink:href="#id66">June</textPath></text><path d="M 110.8373102113329 117.98757091392108 l 12.904692697294495 21.418974864464513 a46.00607082002625,46.00607082002625 0 0,0 -0.681836541282657,0.40284104693053796 l -12.534088284983456 -21.6379344836888" fill="#faff18" stroke="none" /><path d="M 110.21172684928248 118.3499491758327 l 20.061380906061625 36.0492721217976 a62.25541206156482,62.25541206156482 0 0,0 -0.9408784583837134,0.5130419540857776 l -19.43787963580926 -36.38925472764315" fill="#34ff2f" stroke="none" /><path d="M 109.89434966115114 118.52300852407294 l 9.77573612481717 18.300954561980696 a41.74825184592036,41.74825184592036 0 0,0 -0.6367783271363483,0.3331323247553893 l -9.459266895154327 -18.466516305680802" fill="#ffc912" stroke="none" /><path d="M 109.2508944713604 118.85261126421891 l 10.369625720199107 21.1324994857077 a44.53957671859142,44.53957671859142 0 0,0 -0.6911849440581289,0.3318107763877803 l -10.004328108140745 -21.307864538595044" fill="#fff016" stroke="none" /><path d="M 108.92500713936063 119.00905698771935 l 9.997222938535673 21.292731489195614 a44.52285868583507,44.52285868583507 0 0,0 -0.6965325713438739,0.31974394073870926 l -9.62922237142438 -21.461662500268393" fill="#fff016" stroke="none" /><path d="M 107.93186726928326 119.44442032107085 l 7.302592554733516 17.901797174247463 a40.33396493449659,40.33396493449659 0 0,0 -0.6451108924363721,0.2567029376719254 l -6.993360586255277 -18.024846956325455" fill="#ffb510" stroke="none" /><path d="M 107.59598834532513 119.57807347666477 l 17.08041780103633 44.023458109519915 a68.22081676738145,68.22081676738145 0 0,0 -1.0984518911004015,0.41534051442212455 l -16.320095689175652 -44.31094687404867" fill="#37ff78" stroke="none" /><path d="M 106.91757812671514 119.82793768551818 l 7.820124365512484 22.414916864265887 a44.739899812847426,44.739899812847426 0 0,0 -0.7293248500616081,0.2474265871781583 l -7.433129782513649 -22.546206438342168" fill="#fff316" stroke="none" /><path d="M 106.57524785965236 119.94407469862006 l 7.457924942460753 22.62141524152414 a44.819090494324904,44.819090494324904 0 0,0 -0.7347741042682666,0.235251464785259 l -7.067429493101547 -22.746439552969107" fill="#fff417" stroke="none" /><path d="M 105.88484417918355 120.15858648285463 l 4.653919477247139 15.942042883341715 a37.60745910110895,37.60745910110895 0 0,0 -0.6229744222884108,0.176058794462015 l -4.378813886854123 -16.019790471142247" fill="#ff8d0d" stroke="none" /><path d="M 105.53697534728816 120.25689768951611 l 12.52752336684622 45.831657760498175 a68.51294239238726,68.51294239238726 0 0,0 -1.1402822932021228,0.301158917499169 l -11.736750630832598 -46.04050802730092" fill="#37ff7c" stroke="none" /><path d="M 104.83641907484287 120.43548508189849 l 6.163924898056238 26.04464033222007 a47.764103948826346,47.764103948826346 0 0,0 -0.8017087725840996,0.1824663065004701 l -5.714695976079276 -26.146883372298223" fill="#e2ff1b" stroke="none" /><path d="M 104.13013068566511 120.58985236759428 l 5.248025954400772 26.162871794216322 a47.684033370887995,47.684033370887995 0 0,0 -0.806160767357564,0.1545026297428742 l -4.7968975724715035 -26.249331622307665" fill="#e3ff1b" stroke="none" /><path d="M 103.7750983002368 120.6578951692458 l 4.801959203913455 26.277029616743103 a47.712190057635546,47.712190057635546 0 0,0 -0.8091783601118063,0.1406860300116528 l -4.348931872329599 -26.355794225275762" fill="#e3ff1b" stroke="none" /><path d="M 103.06178313531737 120.77559828337769 l 6.945779581798623 47.130289762137984 a68.63935418393095,68.63935418393095 0 0,0 -1.170370964412678,0.16220275122308195 l -6.1334800261991145 -47.24286707885367" fill="#38ff7e" stroke="none" /><path d="M 102.34483914955558 120.86867818915974 l 3.2998350921687503 29.367983142390553 a50.552789132114825,50.552789132114825 0 0,0 -0.8655778629799541,0.08972068463222821 l -2.7938246325831932 -29.420433195478537" fill="#beff1f" stroke="none" /><path d="M 101.62511606390274 120.93702456842531 l 2.326025766935708 29.967126478443372 a51.05726310300841,51.05726310300841 0 0,0 -0.8768166860787024,0.06047041227806716 l -1.8098463200780754 -30.002725235237726" fill="#b7ff1f" stroke="none" /><path d="M 100.90346689309514 120.98055641714683 l 1.5291824277719677 35.51109447748266 a56.54400413411671,56.54400413411671 0 0,0 -0.972771329927652,0.03350421148745717 l -0.9176907461696634 -35.53215548739621" fill="#74ff27" stroke="none" /><line stroke="#e1ed5e" stroke-width="0.3" x1="102.19456741930631" x2="102.32365962044197" y1="184.97166512339345" y2="189.96999836594603" /><path d="M 102.22038585953345 185.97133177190398 a86.0,86.0 0 0,1 -42.740103519485714,-10.115201625700543" fill="none" id="id67" stroke="none" /><text fill="#e1ed5e" style="font-size:6.75px; font-family:Arial;" text-anchor="middle"><textPath startOffset="22.20632615414155" xlink:href="#id67">July</textPath></text><path d="M 100.54218724476979 120.99299961872073 l 1.1439954484007642 44.29446882744783 a65.30923937839273,65.30923937839273 0 0,0 -1.1240662730381072,0.019351820281564257 l -0.38136948546998906 -44.30759812500855" fill="#33ff53" stroke="none" /><path d="M 98.73552117531835 120.96189622390904 l -0.6456672664134822 10.703548346997374 a31.723004869691522,31.723004869691522 0 0,0 -0.5447855664762908,-0.037571602287008364 l 0.8298155936687032 -10.690848400194081" fill="#ff3304" stroke="none" /><path d="M 94.11515582081647 120.15858648285463 l -7.518615969131544 25.75508639315208 a47.83009618339091,47.83009618339091 0 0,0 -0.7883425363810322,-0.23752113933916974 l 7.960833479952822 -25.621849884707185" fill="#e1ff1b" stroke="none" /><path d="M 93.42475214034765 119.94407469862007 l -9.283216050270637 28.157897360209226 a50.64869784634867,50.64869784634867 0 0,0 -0.8256467742915379,-0.2801042135892573 l 9.7665325574994 -27.993930159721845" fill="#bdff1f" stroke="none" /><path d="M 92.06813273071674 119.44442032107085 l -6.721987758250583 16.478484942717394 a38.7967858173726,38.7967858173726 0 0,0 -0.6161826357075183,-0.2575643916996341 l 7.004641853455562 -16.360335507997785" fill="#ff9f0e" stroke="none" /><path d="M 91.40352486487194 119.15986991738527 l -12.10973675645235 26.99024627423062 a50.58241231296381,50.58241231296381 0 0,0 -0.7913305379093696,-0.3632610376422791 l 12.572535290129139 -26.777798166254268" fill="#bdff1f" stroke="none" /><path d="M 90.7491055286396 118.85261126421891 l -12.989617127338546 26.47184041833973 a50.487090196370545,50.487090196370545 0 0,0 -0.7768907575916768,-0.3895491538440346 l 13.443361792612981 -26.244323423586394" fill="#bfff1e" stroke="none" /><path d="M 90.10565033884886 118.52300852407294 l -13.993034651232827 26.19607240485155 a50.699145243438025,50.699145243438025 0 0,0 -0.7662262932393186,-0.41780766819839776 l 14.441883756340788 -25.951324084893386" fill="#bcff1f" stroke="none" /><line stroke="#e1ed5e" stroke-width="0.3" x1="58.666819895761336" x2="56.23545636021788" y1="174.27360380694188" y2="178.64263932499728" /><path d="M 58.180547188652646 175.14741091055294 a86.0,86.0 0 0,1 -31.652253787137756,-30.449443065178592" fill="none" id="id68" stroke="none" /><text fill="#e1ed5e" style="font-size:6.75px; font-family:Arial;" text-anchor="middle"><textPath startOffset="22.20632615414155" xlink:href="#id68">August</textPath></text><path d="M 89.1626897886671 117.98757091392108 l -12.64586625857468 20.989379436255618 a45.50452983733554,45.50452983733554 0 0,0 -0.6674448422476297,-0.40999913603695576 l 13.005290300754618 -20.768591833390282" fill="#fffe18" stroke="none" /><path d="M 88.54995079064634 117.60387380957326 l -17.631800699875548 27.108005291592566 a53.33766143073958,53.33766143073958 0 0,0 -0.7653327094820725,-0.5072207875276228 l 18.095808108097582 -26.800486482973625" fill="#9bff22" stroke="none" /><path d="M 87.65650970185807 116.9893568818739 l -12.30653993425724 16.938499069068172 a41.937136286185165,41.937136286185165 0 0,0 -0.5803601001128763,-0.42933652761305907 l 12.59628500478868 -16.724152592715345" fill="#ffcc13" stroke="none" /><path d="M 87.07902340077011 116.55440617244103 l -19.91906193358126 25.520380699564654 a53.37373718563487,53.37373718563487 0 0,0 -0.719382685526994,-0.5715211131358346 l 20.35540211182561 -25.17372567242369" fill="#9aff22" stroke="none" /><path d="M 86.51685102203217 116.09983520530335 l -20.811321234152143 24.85019210438031 a53.413625825193904,53.413625825193904 0 0,0 -0.6998063088431499,-0.5963901183697832 l 21.23599301957235 -24.488277595787572" fill="#9aff23" stroke="none" /><path d="M 85.97065885151581 115.62618273729859 l -19.47196630283008 21.688296013488735 a50.146863564837666,50.146863564837666 0 0,0 -0.6373438322990165,-0.5821984795287328 l 19.842409684595953 -21.349904767373424" fill="#c3ff1e" stroke="none" /><path d="M 85.44109423537348 115.13401014063109 l -18.34073197363731 19.065225653841882 a47.45496699224387,47.45496699224387 0 0,0 -0.5838091896405389,-0.5713801676096055 l 18.666191115653646 -18.746695383309707" fill="#e6ff1a" stroke="none" /><path d="M 85.18274418774928 114.88116024355367 l -12.545945255941225 12.60005389163582 a38.7809476810771,38.7809476810771 0 0,0 -0.4689897729923961,-0.47508416397121395 l 12.760975653989158 -12.382229233683939" fill="#ff9f0e" stroke="none" /><path d="M 84.19399662182784 113.82643327865904 l -33.39336286663768 29.211122671480105 a65.36672594716896,65.36672594716896 0 0,0 -0.733531361632595,-0.8532626921405415 l 33.891236737841055 -28.631982880178036" fill="#33ff54" stroke="none" /><path d="M 83.95833913139862 113.55231037782056 l -15.844424272571745 13.385681025089982 a41.741799271874044,41.741799271874044 0 0,0 -0.4589689725484138,-0.5528576940613652 l 16.072489245013696 -13.110962073914854" fill="#ffc912" stroke="none" /><path d="M 83.50135304334701 112.99209946851258 l -23.18795814580723 18.25969484003975 a50.51436698665723,50.51436698665723 0 0,0 -0.5320682671425353,-0.6877699588059202 l 23.498833230167833 -17.857846887120576" fill="#beff1e" stroke="none" /><path d="M 83.28015986056508 112.70617746262583 l -8.067865021704167 6.131142633864283 a31.133180942094434,31.133180942094434 0 0,0 -0.3205809338414866,-0.4294705494681441 l 8.172207222240738 -5.991359204886831" fill="#ff2904" stroke="none" /><path d="M 82.85270091963577 112.12312394758628 l -24.301014502247117 17.180793866259187 a50.761031294518574,50.761031294518574 0 0,0 -0.49827775916983774,-0.7178062753955139 l 24.593153168579086 -16.759946328676662" fill="#bbff1f" stroke="none" /><path d="M 82.44556493220864 111.52570212397912 l -24.764487884790398 16.259601035904787 a50.62523394072571,50.62523394072571 0 0,0 -0.4720083140949245,-0.7325673854052439 l 25.040701062262368 -15.830912050578094" fill="#bdff1f" stroke="none" /><path d="M 82.05923443525364 110.91462005526583 l -37.835071506003935 23.017715089221465 a65.28665536923063,65.28665536923063 0 0,0 -0.5758255779085821,-0.9651167900001446 l 38.22567795961075 -22.36303620533521" fill="#33ff53" stroke="none" /><line stroke="#e1ed5e" stroke-width="0.3" x1="26.63291911575756" x2="22.317208475507996" y1="142.92168965132927" y2="145.44649492493687" /><path d="M 25.769776987707644 143.4266507060508 a86.0,86.0 0 0,1 -11.730757126820373,-40.83630448921669" fill="none" id="id69" stroke="none" /><text fill="#e1ed5e" style="font-size:6.75px; font-family:Arial;" text-anchor="middle"><textPath startOffset="21.46611528233685" xlink:href="#id69">September</textPath></text><path d="M 80.73074385275274 108.34839909993369 l -24.355651524731094 10.552078280220003 a47.54324993715025,47.54324993715025 0 0,0 -0.318877147836973,-0.7537313826999075 l 24.533679653760377 -10.131272371853935" fill="#e5ff1a" stroke="none" /><path d="M 80.58989483394504 108.01547362559985 l -6.992582603002193 2.8876124549398394 a28.565349770482037,28.565349770482037 0 0,0 -0.18376686080073576,-0.4560942778968572 l 7.041252078060316 -2.766818809200177" fill="#ff0000" stroke="none" /><path d="M 80.45479744820244 107.68017299344265 l -38.653454747196406 15.188648900718245 a62.53052635499399,62.53052635499399 0 0,0 -0.3850264170347411,-1.0051824786173376 l 38.90917544382466 -14.521042855267751" fill="#31ff2f" stroke="none" /><path d="M 79.76711848015287 105.62410040840567 l -17.161090817681668 4.770239858407453 a38.811744057207235,38.811744057207235 0 0,0 -0.17338116050178035,-0.6452157976019733 l 17.24066005452522 -4.4741331276299405" fill="#ff9f0e" stroke="none" /><path d="M 79.67330655649465 105.27499134158121 l -31.44108844832969 8.159294072879321 a53.48255104796134,53.48255104796134 0 0,0 -0.2235791840308496,-0.8930877014537089 l 31.5768789466556 -7.61687853202822" fill="#99ff23" stroke="none" /><path d="M 79.50377843672027 104.57218783832718 l -35.739044686320895 7.972475559152784 a57.617477816367014,57.617477816367014 0 0,0 -0.20760389739279145,-0.9698562937229264 l 35.87098262243813 -7.356105446013693" fill="#68ff28" stroke="none" /><path d="M 79.35854240842038 103.8639653848113 l -26.35529304134048 4.933563415591353 a47.81308485181426,47.81308485181426 0 0,0 -0.1444719207898028,-0.8102752556363103 l 26.43631140446947 -4.479169409221829" fill="#e1ff1b" stroke="none" /><path d="M 79.23777060512086 103.15116336523772 l -20.439967209930835 3.10225239465279 a41.67404724438775,41.67404724438775 0 0,0 -0.10153772263038982,-0.7101545955860424 l 20.490338983577825 -2.7499523270863477" fill="#ffc812" stroke="none" /><path d="M 79.18660465613746 102.79330883721812 l -23.460926517245706 3.148626751534415 a44.67126788890027,44.67126788890027 0 0,0 -0.09572093500144042,-0.7629900326295009 l 23.511648961493997 -2.7443189646175052" fill="#fff216" stroke="none" /><path d="M 79.07016306316243 101.71520430193888 l -26.66825143270922 2.1854685118001664 a47.757651374780025,47.757651374780025 0 0,0 -0.060091499972886875,-0.8199007742109807 l 26.70191949134644 -1.7260946010924245" fill="#e2ff1b" stroke="none" /><path d="M 79.04373962182676 101.35467743843564 l -22.82058490431646 1.475193137702239 a43.86821571895455,43.86821571895455 0 0,0 -0.0422255580825246,-0.7539657050890024 l 22.842596813286516 -1.082155716277799" fill="#ffe715" stroke="none" /><path d="M 79.0095281055655 100.63252640178507 l -20.630952969213485 0.6216926666843424 a41.64031788005475,41.64031788005475 0 0,0 -0.015422656297496624,-0.7166302359803896 l 20.63859768819599 -0.266472614913824" fill="#ffc812" stroke="none" /><line stroke="#e1ed5e" stroke-width="0.3" x1="15.007084014347285" x2="10.007500721073583" y1="101.09737516637583" y2="101.16192664675087" /><path d="M 14.007167355692545 101.11028546245083 a86.0,86.0 0 0,1 10.666146001902534,-42.60595125391555" fill="none" id="id70" stroke="none" /><text fill="#e1ed5e" style="font-size:6.75px; font-family:Arial;" text-anchor="middle"><textPath startOffset="22.20632615414155" xlink:href="#id70">October</textPath></text><path d="M 79.00175016825051 100.2711162175752 l -44.51817050964271 0.5747906658245882 a65.52188102310078,65.52188102310078 0 0,0 -0.004853931804976141,-1.127882807624638 l 44.52146873873719 0.19160162000372521" fill="#33ff56" stroke="none" /><path d="M 79.00019446554 99.90962569577889 l -19.91304570279928 -0.08569734835690375 a40.913230104563354,40.913230104563354 0 0,0 0.009092464461393477,-0.7042213927823056 l 19.90862023122017 0.4284549991996813" fill="#ffbd11" stroke="none" /><path d="M 79.01574976396665 99.18683210126434 l -21.595515023074483 -0.8368552307517294 a42.611723572845186,42.611723572845186 0 0,0 0.03471108748966399,-0.7326961957049958 l 21.577910327351322 1.208462533079734" fill="#ffd614" stroke="none" /><path d="M 79.12142395522702 97.74499172005258 l -23.668244163121322 -2.556308746592789 a44.80589204741199,44.80589204741199 0 0,0 0.08941900566982568,-0.7660874333125501 l 23.620734804447906 2.963339918230201" fill="#fff417" stroke="none" /><path d="M 79.16333360222342 97.38593545837743 l -35.32749993983127 -4.432012452180947 a56.60442369109582,56.60442369109582 0 0,0 0.12960796009968678,-0.9657298460247737 l 35.24597598067375 5.039460640270381" fill="#74ff27" stroke="none" /><path d="M 79.26566170972629 96.67025291283419 l -35.08942965901637 -5.635044849838658 a56.53901805417183,56.53901805417183 0 0,0 0.16258505008409233,-0.9595861690083233 l 34.98723274741206 6.238216807162809" fill="#74ff27" stroke="none" /><path d="M 79.3925641242962 95.95851677861259 l -21.58706570338754 -4.2336059840462195 a42.99829141798341,42.99829141798341 0 0,0 0.14869362843934295,-0.7250829397375322 l 21.510992779033202 4.604564579947154" fill="#ffdb14" stroke="none" /><path d="M 79.71946130924805 94.55025226153421 l -45.89421003612418 -12.332604728448072 a68.52232795463645,68.52232795463645 0 0,0 0.31589846940949,-1.1364548709533373 l 45.67512479614833 13.120770902820352" fill="#38ff7c" stroke="none" /><path d="M 79.91906864156998 93.8553929516997 l -22.68549354078675 -6.941582589812083 a44.72376837773164,44.72376837773164 0 0,0 0.23159355029996806,-0.7342148430955509 l 22.56264450671858 7.331047599334048" fill="#fff316" stroke="none" /><path d="M 80.02781315780177 93.51064311812611 l -21.309629162602413 -6.923918234348653 a43.406270077002574,43.406270077002574 0 0,0 0.2370038283001168,-0.708611280200688 l 21.18728804053052 7.289702617471663" fill="#ffe115" stroke="none" /><path d="M 80.2630227832202 92.82701384747504 l -25.07804777926065 -9.114085073780362 a47.68286017560685,47.68286017560685 0 0,0 0.2869949873007229,-0.7690038810353844 l 24.9174482034583 9.544412091845087" fill="#e3ff1b" stroke="none" /><path d="M 80.38941819471856 92.48833698450439 l -28.307700183259414 -10.84301866368195 a51.313312973118926,51.313312973118926 0 0,0 0.3230452834278962,-0.8221150100905236 l 28.11686134994983 11.328682678668235" fill="#b4ff20" stroke="none" /><path d="M 81.10775173730289 90.83032412892265 l -18.952056681856664 -9.198704910418176 a42.06648106593171,42.06648106593171 0 0,0 0.3217885225488941,-0.6487060256567581 l 18.790908146354358 9.523570524573897" fill="#ffce13" stroke="none" /><path d="M 81.26839172434947 90.50648371742162 l -20.135619920256026 -10.205094659236968 a43.57403700220672,43.57403700220672 0 0,0 0.344837805185662,-0.6661168799498017 l 19.95697268191025 10.550184261447106" fill="#ffe315" stroke="none" /><path d="M 81.6062741919709 89.86733742301443 l -33.67855760652137 -18.552709976653567 a59.45059544316056,59.45059544316056 0 0,0 0.5014866049224255,-0.892088712777894 l 33.35421336030652 19.129682199366247" fill="#53ff2b" stroke="none" /><line stroke="#e1ed5e" stroke-width="0.3" x1="26.266209847984243" x2="21.928928074336255" y1="57.71137044288968" y2="55.22380399835378" /><path d="M 25.398753493254645 57.2138571539825 a86.0,86.0 0 0,1 29.58750427330803,-30.4925239686951" fill="none" id="id71" stroke="none" /><text fill="#e1ed5e" style="font-size:6.75px; font-family:Arial;" text-anchor="middle"><textPath startOffset="21.46611528233685" xlink:href="#id71">November</textPath></text><path d="M 81.96595687620814 89.24020034530311 l -17.815584012402997 -10.62945859611385 a41.745612156537774,41.745612156537774 0 0,0 0.3734924292897285,-0.6139233505303516 l 17.629975784827053 10.934549719851274" fill="#ffc912" stroke="none" /><path d="M 82.15384107792192 88.93136811851018 l -17.803703279059143 -11.042299835141895 a41.950041434277786,41.950041434277786 0 0,0 0.38588525435432874,-0.6103778018442715 l 17.61099042845885 11.347125284700383" fill="#ffcc13" stroke="none" /><path d="M 83.17141714833178 87.43820079747577 l -16.63741839874934 -12.419103320559977 a41.761450292833274,41.761450292833274 0 0,0 0.43496352143702727,-0.5723610083602465 l 16.421178937088204 12.703649104801249" fill="#ffca12" stroke="none" /><path d="M 83.39014120810768 87.1503855733568 l -23.41362342500547 -18.11310000352301 a50.60206333392303,50.60206333392303 0 0,0 0.5389021418170153,-0.684350993738279 l 23.09836720259448 18.513443391214334" fill="#bdff1f" stroke="none" /><path d="M 84.07557802195018 86.31012108654704 l -11.234828794484235 -9.658337741983113 a35.815696607975866,35.815696607975866 0 0,0 0.4059251049678898,-0.46404256622786905 l 11.066911825938503 9.850295864413926" fill="#ff720a" stroke="none" /><path d="M 84.31358615837235 86.03803664274999 l -47.05924152488297 -41.885890071750055 a84.0,84.0 0 0,0 0.9706254375358201,-1.071788850921776 l 46.331272446731106 42.68973170994139" fill="#4dd2ff" stroke="none" /><line stroke="#e1ed5e" stroke-width="0.3" x1="56.76296977257108" x2="54.21961505331056" y1="26.818313649435495" y2="22.513508569990535" /><path d="M 56.25429882871898 25.957352633546506 a86.0,86.0 0 0,1 42.26535254187918,-11.944610805530505" fill="none" id="id72" stroke="none" /><text fill="#e1ed5e" style="font-size:6.75px; font-family:Arial;" text-anchor="middle"><textPath startOffset="22.20632615414155" xlink:href="#id72">December</textPath></text><path d="M 89.63071344664047 81.73862282372117 l -14.70048325708776 -25.889058813238844 a50.77159005204891,50.77159005204891 0 0,0 0.7636915360453151,-0.4249935129779383 l 14.252667631970398 26.138267723776966" fill="#bbff1f" stroke="none" /><path d="M 90.26544431104013 81.39251694778311 l -9.71547614471341 -18.571012738876064 a41.958840398886394,41.958840398886394 0 0,0 0.6428484214894544,-0.32929192985505257 l 9.39436723563519 18.735497194043624" fill="#ffcc13" stroke="none" /><path d="M 90.91171255644093 81.06846463323043 l -10.627302552973573 -22.13741096817589 a45.55615042970605,45.55615042970605 0 0,0 0.7098554776148821,-0.3332866648629674 l 10.244668864059081 22.31706261567886" fill="#fffe18" stroke="none" /><path d="M 91.56875222667455 80.76684994638697 l -7.023200584223449 -16.021148271831034 a38.4929282395553,38.4929282395553 0 0,0 0.6091345363912544,-0.26079961904850124 l 6.746382290041887 16.139667418842322" fill="#ff9a0e" stroke="none" /><path d="M 92.57280143429618 80.3572730644239 l -10.495164967342573 -27.756583828158263 a50.67450814253392,50.67450814253392 0 0,0 0.8185566092728288,-0.301481307278576 l 10.015826032297175 27.933128403243163" fill="#bcff1f" stroke="none" /><path d="M 92.91201910852362 80.23233633223022 l -7.491154806187219 -20.892075043540565 a43.19450832875539,43.19450832875539 0 0,0 0.7020506199163081,-0.24493167616352712 l 7.130422182207624 21.0179275728763" fill="#ffde14" stroke="none" /><path d="M 93.94186890950719 79.89281104454417 l -12.11552888082289 -40.21194405718469 a62.99745807689085,62.99745807689085 0 0,0 1.0409873433923709,-0.3038927512887265 l 11.421551319707097 40.414535137392114" fill="#30ff34" stroke="none" /><path d="M 94.63758080256005 79.69619591428918 l -6.07007538870166 -22.983212788834503 a44.77128278661813,44.77128278661813 0 0,0 0.746808685824883,-0.19037816240578803 l 5.673557814191776 23.084293947409154" fill="#fff417" stroke="none" /><path d="M 98.19473922651362 79.07773832637324 l -2.517051132000467 -29.1716317127463 a50.28002122924795,50.28002122924795 0 0,0 0.8629244252424326,-0.06697954338317935 l 2.0145365173957006 29.210636518317944" fill="#c1ff1e" stroke="none" /><path d="M 98.55514903715128 79.0497635885617 l -2.0190971229544648 -29.276764975226087 a50.34630676263281,50.34630676263281 0 0,0 0.865088484796203,-0.05218449985708028 l 1.514846589318639 29.307182744463475" fill="#c1ff1e" stroke="none" /><path d="M 98.91598698831166 79.02799685794201 l -0.758876733459337 -14.681710520943138 a35.70131006806395,35.70131006806395 0 0,0 0.613993115561553,-0.026439835124911073 l 0.5060427855084598 14.69259808259224" fill="#ff710a" stroke="none" /></svg>